<?xml version="1.0" encoding="utf-8" ?>
<svg xmlns="http://www.w3.org/2000/svg" xmlns:cc="http://creativecommons.org/ns" xmlns:dc="http://purl.org/dc/elements/1.1/" xmlns:ev="http://www.w3.org/2001/xml-events" xmlns:inkscape="http://www.inkscape.org/namespaces/inkscape" xmlns:rdf="http://www.w3.org/1999/02/22-rdf-syntax-ns" xmlns:sodipodi="http://sodipodi.sourceforge.net/DTD/sodipodi-0.dtd" xmlns:xlink="http://www.w3.org/1999/xlink" baseProfile="tiny" height="180.4cm" version="1.2" viewBox="0 0 2830.8661417322837 6818.2677165354335" width="74.9cm">
  <metadata>
    <rdf:RDF>
      <cc:Work>
        <dc:format>image/svg+xml</dc:format>
        <dc:source>vsk save -s 2017647304 -c /home/kaos/Documents/kaotec/livecodeVplot/vsk/kaos/config/kata020.json /home/kaos/Documents/kaotec/livecodeVplot/vsk/kaos/sketch_kaos.py</dc:source>
        <dc:date>2025-06-06T22:03:00.690991</dc:date>
      </cc:Work>
    </rdf:RDF>
  </metadata>
  <defs/>
  <g fill="none" id="layer1" inkscape:groupmode="layer" inkscape:label="1" stroke="#0000ff" stroke-width="1.8898" style="display:inline">
    <line x1="2323.6535" x2="2323.6535" y1="4898.2677" y2="4849.8898"/>
    <line x1="2323.6535" x2="2275.2756" y1="4849.8898" y2="4849.8898"/>
    <line x1="2275.2756" x2="2275.2756" y1="4849.8898" y2="4898.2677"/>
    <line x1="2275.2756" x2="2275.2756" y1="4898.2677" y2="4849.8898"/>
    <line x1="2275.2756" x2="2275.2756" y1="4849.8898" y2="4813.6063"/>
    <line x1="2275.2756" x2="2238.9921" y1="4813.6063" y2="4813.6063"/>
    <line x1="2238.9921" x2="2238.9921" y1="4813.6063" y2="4849.8898"/>
    <line x1="2238.9921" x2="2202.7087" y1="4849.8898" y2="4849.8898"/>
    <line x1="2202.7087" x2="2202.7087" y1="4849.8898" y2="4886.1732"/>
    <line x1="2202.7087" x2="2166.4252" y1="4886.1732" y2="4886.1732"/>
    <line x1="2311.5591" x2="2311.5591" y1="4898.2677" y2="4861.9843"/>
    <line x1="2311.5591" x2="2251.0866" y1="4861.9843" y2="4861.9843"/>
    <line x1="2251.0866" x2="2251.0866" y1="4861.9843" y2="4910.3622"/>
    <line x1="2251.0866" x2="2251.0866" y1="4910.3622" y2="4874.0787"/>
    <line x1="2251.0866" x2="2251.0866" y1="4874.0787" y2="4849.8898"/>
    <line x1="2251.0866" x2="2202.7087" y1="4849.8898" y2="4849.8898"/>
    <line x1="2202.7087" x2="2202.7087" y1="4849.8898" y2="4886.1732"/>
    <line x1="2202.7087" x2="2154.3307" y1="4886.1732" y2="4886.1732"/>
    <line x1="2154.3307" x2="2154.3307" y1="4886.1732" y2="4922.4567"/>
    <line x1="2154.3307" x2="2130.1417" y1="4922.4567" y2="4922.4567"/>
    <line x1="2299.4646" x2="2299.4646" y1="4898.2677" y2="4874.0787"/>
    <line x1="2299.4646" x2="2226.8976" y1="4874.0787" y2="4874.0787"/>
    <line x1="2226.8976" x2="2226.8976" y1="4874.0787" y2="4922.4567"/>
    <line x1="2226.8976" x2="2226.8976" y1="4922.4567" y2="4898.2677"/>
    <line x1="2226.8976" x2="2226.8976" y1="4898.2677" y2="4886.1732"/>
    <line x1="2226.8976" x2="2166.4252" y1="4886.1732" y2="4886.1732"/>
    <line x1="2166.4252" x2="2166.4252" y1="4886.1732" y2="4922.4567"/>
    <line x1="2166.4252" x2="2105.9528" y1="4922.4567" y2="4922.4567"/>
    <line x1="2105.9528" x2="2105.9528" y1="4922.4567" y2="4958.7402"/>
    <line x1="2105.9528" x2="2093.8583" y1="4958.7402" y2="4958.7402"/>
    <line x1="2287.3701" x2="2287.3701" y1="4898.2677" y2="4886.1732"/>
    <line x1="2287.3701" x2="2202.7087" y1="4886.1732" y2="4886.1732"/>
    <line x1="2202.7087" x2="2202.7087" y1="4886.1732" y2="4934.5512"/>
    <line x1="2202.7087" x2="2202.7087" y1="4934.5512" y2="4922.4567"/>
    <line x1="2202.7087" x2="2202.7087" y1="4922.4567" y2="4922.4567"/>
    <line x1="2202.7087" x2="2130.1417" y1="4922.4567" y2="4922.4567"/>
    <line x1="2130.1417" x2="2130.1417" y1="4922.4567" y2="4958.7402"/>
    <line x1="2130.1417" x2="2057.5748" y1="4958.7402" y2="4958.7402"/>
    <line x1="2057.5748" x2="2057.5748" y1="4958.7402" y2="4995.0236"/>
    <line x1="2057.5748" x2="2057.5748" y1="4995.0236" y2="4995.0236"/>
    <line x1="2275.2756" x2="2275.2756" y1="4898.2677" y2="4898.2677"/>
    <line x1="2275.2756" x2="2178.5197" y1="4898.2677" y2="4898.2677"/>
    <line x1="2178.5197" x2="2178.5197" y1="4898.2677" y2="4946.6457"/>
    <line x1="2178.5197" x2="2178.5197" y1="4946.6457" y2="4946.6457"/>
    <line x1="2178.5197" x2="2178.5197" y1="4946.6457" y2="4958.7402"/>
    <line x1="2178.5197" x2="2093.8583" y1="4958.7402" y2="4958.7402"/>
    <line x1="2093.8583" x2="2093.8583" y1="4958.7402" y2="4995.0236"/>
    <line x1="2093.8583" x2="2009.1969" y1="4995.0236" y2="4995.0236"/>
    <line x1="2009.1969" x2="2009.1969" y1="4995.0236" y2="5031.3071"/>
    <line x1="2009.1969" x2="2021.2913" y1="5031.3071" y2="5031.3071"/>
    <line x1="2263.1811" x2="2263.1811" y1="4898.2677" y2="4910.3622"/>
    <line x1="2263.1811" x2="2154.3307" y1="4910.3622" y2="4910.3622"/>
    <line x1="2154.3307" x2="2154.3307" y1="4910.3622" y2="4958.7402"/>
    <line x1="2154.3307" x2="2154.3307" y1="4958.7402" y2="4970.8346"/>
    <line x1="2154.3307" x2="2154.3307" y1="4970.8346" y2="4995.0236"/>
    <line x1="2154.3307" x2="2057.5748" y1="4995.0236" y2="4995.0236"/>
    <line x1="2057.5748" x2="2057.5748" y1="4995.0236" y2="5031.3071"/>
    <line x1="2057.5748" x2="1960.8189" y1="5031.3071" y2="5031.3071"/>
    <line x1="1960.8189" x2="1960.8189" y1="5031.3071" y2="5067.5906"/>
    <line x1="1960.8189" x2="1985.0079" y1="5067.5906" y2="5067.5906"/>
    <line x1="2251.0866" x2="2251.0866" y1="4898.2677" y2="4922.4567"/>
    <line x1="2251.0866" x2="2130.1417" y1="4922.4567" y2="4922.4567"/>
    <line x1="2130.1417" x2="2130.1417" y1="4922.4567" y2="4970.8346"/>
    <line x1="2130.1417" x2="2130.1417" y1="4970.8346" y2="4995.0236"/>
    <line x1="2130.1417" x2="2130.1417" y1="4995.0236" y2="5031.3071"/>
    <line x1="2130.1417" x2="2021.2913" y1="5031.3071" y2="5031.3071"/>
    <line x1="2021.2913" x2="2021.2913" y1="5031.3071" y2="5067.5906"/>
    <line x1="2021.2913" x2="1912.4409" y1="5067.5906" y2="5067.5906"/>
    <line x1="1912.4409" x2="1912.4409" y1="5067.5906" y2="5103.874"/>
    <line x1="1912.4409" x2="1948.7244" y1="5103.874" y2="5103.874"/>
    <line x1="2238.9921" x2="2238.9921" y1="4898.2677" y2="4934.5512"/>
    <line x1="2238.9921" x2="2105.9528" y1="4934.5512" y2="4934.5512"/>
    <line x1="2105.9528" x2="2105.9528" y1="4934.5512" y2="4982.9291"/>
    <line x1="2105.9528" x2="2105.9528" y1="4982.9291" y2="5019.2126"/>
    <line x1="2105.9528" x2="2105.9528" y1="5019.2126" y2="5067.5906"/>
    <line x1="2105.9528" x2="1985.0079" y1="5067.5906" y2="5067.5906"/>
    <line x1="1985.0079" x2="1985.0079" y1="5067.5906" y2="5103.874"/>
    <line x1="1985.0079" x2="1864.063" y1="5103.874" y2="5103.874"/>
    <line x1="1864.063" x2="1864.063" y1="5103.874" y2="5140.1575"/>
    <line x1="1864.063" x2="1912.4409" y1="5140.1575" y2="5140.1575"/>
    <line x1="2226.8976" x2="2226.8976" y1="4898.2677" y2="4946.6457"/>
    <line x1="2226.8976" x2="2081.7638" y1="4946.6457" y2="4946.6457"/>
    <line x1="2081.7638" x2="2081.7638" y1="4946.6457" y2="4995.0236"/>
    <line x1="2081.7638" x2="2081.7638" y1="4995.0236" y2="5043.4016"/>
    <line x1="2081.7638" x2="2081.7638" y1="5043.4016" y2="5103.874"/>
    <line x1="2081.7638" x2="1948.7244" y1="5103.874" y2="5103.874"/>
    <line x1="1948.7244" x2="1948.7244" y1="5103.874" y2="5140.1575"/>
    <line x1="1948.7244" x2="1815.685" y1="5140.1575" y2="5140.1575"/>
    <line x1="1815.685" x2="1815.685" y1="5140.1575" y2="5176.4409"/>
    <line x1="1815.685" x2="1876.1575" y1="5176.4409" y2="5176.4409"/>
    <line x1="2214.8031" x2="2214.8031" y1="4898.2677" y2="4958.7402"/>
    <line x1="2214.8031" x2="2057.5748" y1="4958.7402" y2="4958.7402"/>
    <line x1="2057.5748" x2="2057.5748" y1="4958.7402" y2="5007.1181"/>
    <line x1="2057.5748" x2="2057.5748" y1="5007.1181" y2="5067.5906"/>
    <line x1="2057.5748" x2="2057.5748" y1="5067.5906" y2="5140.1575"/>
    <line x1="2057.5748" x2="1912.4409" y1="5140.1575" y2="5140.1575"/>
    <line x1="1912.4409" x2="1912.4409" y1="5140.1575" y2="5176.4409"/>
    <line x1="1912.4409" x2="1767.3071" y1="5176.4409" y2="5176.4409"/>
    <line x1="1767.3071" x2="1767.3071" y1="5176.4409" y2="5212.7244"/>
    <line x1="1767.3071" x2="1839.874" y1="5212.7244" y2="5212.7244"/>
    <line x1="2202.7087" x2="2202.7087" y1="4898.2677" y2="4970.8346"/>
    <line x1="2202.7087" x2="2033.3858" y1="4970.8346" y2="4970.8346"/>
    <line x1="2033.3858" x2="2033.3858" y1="4970.8346" y2="5019.2126"/>
    <line x1="2033.3858" x2="2033.3858" y1="5019.2126" y2="5091.7795"/>
    <line x1="2033.3858" x2="2033.3858" y1="5091.7795" y2="5176.4409"/>
    <line x1="2033.3858" x2="1876.1575" y1="5176.4409" y2="5176.4409"/>
    <line x1="1876.1575" x2="1876.1575" y1="5176.4409" y2="5212.7244"/>
    <line x1="1876.1575" x2="1718.9291" y1="5212.7244" y2="5212.7244"/>
    <line x1="1718.9291" x2="1718.9291" y1="5212.7244" y2="5249.0079"/>
    <line x1="1718.9291" x2="1803.5906" y1="5249.0079" y2="5249.0079"/>
    <line x1="2190.6142" x2="2190.6142" y1="4898.2677" y2="4982.9291"/>
    <line x1="2190.6142" x2="2009.1969" y1="4982.9291" y2="4982.9291"/>
    <line x1="2009.1969" x2="2009.1969" y1="4982.9291" y2="5031.3071"/>
    <line x1="2009.1969" x2="2009.1969" y1="5031.3071" y2="5115.9685"/>
    <line x1="2009.1969" x2="2009.1969" y1="5115.9685" y2="5212.7244"/>
    <line x1="2009.1969" x2="1839.874" y1="5212.7244" y2="5212.7244"/>
    <line x1="1839.874" x2="1839.874" y1="5212.7244" y2="5249.0079"/>
    <line x1="1839.874" x2="1670.5512" y1="5249.0079" y2="5249.0079"/>
    <line x1="1670.5512" x2="1670.5512" y1="5249.0079" y2="5285.2913"/>
    <line x1="1670.5512" x2="1767.3071" y1="5285.2913" y2="5285.2913"/>
    <line x1="2178.5197" x2="2178.5197" y1="4898.2677" y2="4995.0236"/>
    <line x1="2178.5197" x2="1985.0079" y1="4995.0236" y2="4995.0236"/>
    <line x1="1985.0079" x2="1985.0079" y1="4995.0236" y2="5043.4016"/>
    <line x1="1985.0079" x2="1985.0079" y1="5043.4016" y2="5140.1575"/>
    <line x1="1985.0079" x2="1985.0079" y1="5140.1575" y2="5249.0079"/>
    <line x1="1985.0079" x2="1803.5906" y1="5249.0079" y2="5249.0079"/>
    <line x1="1803.5906" x2="1803.5906" y1="5249.0079" y2="5285.2913"/>
    <line x1="1803.5906" x2="1622.1732" y1="5285.2913" y2="5285.2913"/>
    <line x1="1622.1732" x2="1622.1732" y1="5285.2913" y2="5321.5748"/>
    <line x1="1622.1732" x2="1731.0236" y1="5321.5748" y2="5321.5748"/>
    <line x1="2166.4252" x2="2166.4252" y1="4898.2677" y2="5007.1181"/>
    <line x1="2166.4252" x2="1960.8189" y1="5007.1181" y2="5007.1181"/>
    <line x1="1960.8189" x2="1960.8189" y1="5007.1181" y2="5055.4961"/>
    <line x1="1960.8189" x2="1960.8189" y1="5055.4961" y2="5164.3465"/>
    <line x1="1960.8189" x2="1960.8189" y1="5164.3465" y2="5285.2913"/>
    <line x1="1960.8189" x2="1767.3071" y1="5285.2913" y2="5285.2913"/>
    <line x1="1767.3071" x2="1767.3071" y1="5285.2913" y2="5321.5748"/>
    <line x1="1767.3071" x2="1573.7953" y1="5321.5748" y2="5321.5748"/>
    <line x1="1573.7953" x2="1573.7953" y1="5321.5748" y2="5357.8583"/>
    <line x1="1573.7953" x2="1694.7402" y1="5357.8583" y2="5357.8583"/>
    <line x1="2154.3307" x2="2154.3307" y1="4898.2677" y2="5019.2126"/>
    <line x1="2154.3307" x2="1936.6299" y1="5019.2126" y2="5019.2126"/>
    <line x1="1936.6299" x2="1936.6299" y1="5019.2126" y2="5067.5906"/>
    <line x1="1936.6299" x2="1936.6299" y1="5067.5906" y2="5188.5354"/>
    <line x1="1936.6299" x2="1936.6299" y1="5188.5354" y2="5321.5748"/>
    <line x1="1936.6299" x2="1731.0236" y1="5321.5748" y2="5321.5748"/>
    <line x1="1731.0236" x2="1731.0236" y1="5321.5748" y2="5357.8583"/>
    <line x1="1731.0236" x2="1525.4173" y1="5357.8583" y2="5357.8583"/>
    <line x1="1525.4173" x2="1525.4173" y1="5357.8583" y2="5394.1417"/>
    <line x1="1525.4173" x2="1658.4567" y1="5394.1417" y2="5394.1417"/>
    <line x1="2142.2362" x2="2142.2362" y1="4898.2677" y2="5031.3071"/>
    <line x1="2142.2362" x2="1912.4409" y1="5031.3071" y2="5031.3071"/>
    <line x1="1912.4409" x2="1912.4409" y1="5031.3071" y2="5079.685"/>
    <line x1="1912.4409" x2="1912.4409" y1="5079.685" y2="5212.7244"/>
    <line x1="1912.4409" x2="1912.4409" y1="5212.7244" y2="5357.8583"/>
    <line x1="1912.4409" x2="1694.7402" y1="5357.8583" y2="5357.8583"/>
    <line x1="1694.7402" x2="1694.7402" y1="5357.8583" y2="5394.1417"/>
    <line x1="1694.7402" x2="1477.0394" y1="5394.1417" y2="5394.1417"/>
    <line x1="1477.0394" x2="1477.0394" y1="5394.1417" y2="5430.4252"/>
    <line x1="1477.0394" x2="1622.1732" y1="5430.4252" y2="5430.4252"/>
    <line x1="2130.1417" x2="2130.1417" y1="4898.2677" y2="5043.4016"/>
    <line x1="2130.1417" x2="1888.252" y1="5043.4016" y2="5043.4016"/>
    <line x1="1888.252" x2="1888.252" y1="5043.4016" y2="5091.7795"/>
    <line x1="1888.252" x2="1888.252" y1="5091.7795" y2="5236.9134"/>
    <line x1="1888.252" x2="1888.252" y1="5236.9134" y2="5394.1417"/>
    <line x1="1888.252" x2="1658.4567" y1="5394.1417" y2="5394.1417"/>
    <line x1="1658.4567" x2="1658.4567" y1="5394.1417" y2="5430.4252"/>
    <line x1="1658.4567" x2="1428.6614" y1="5430.4252" y2="5430.4252"/>
    <line x1="1428.6614" x2="1428.6614" y1="5430.4252" y2="5466.7087"/>
    <line x1="1428.6614" x2="1585.8898" y1="5466.7087" y2="5466.7087"/>
    <line x1="2118.0472" x2="2118.0472" y1="4898.2677" y2="5055.4961"/>
    <line x1="2118.0472" x2="1864.063" y1="5055.4961" y2="5055.4961"/>
    <line x1="1864.063" x2="1864.063" y1="5055.4961" y2="5103.874"/>
    <line x1="1864.063" x2="1864.063" y1="5103.874" y2="5261.1024"/>
    <line x1="1864.063" x2="1864.063" y1="5261.1024" y2="5430.4252"/>
    <line x1="1864.063" x2="1622.1732" y1="5430.4252" y2="5430.4252"/>
    <line x1="1622.1732" x2="1622.1732" y1="5430.4252" y2="5466.7087"/>
    <line x1="1622.1732" x2="1380.2835" y1="5466.7087" y2="5466.7087"/>
    <line x1="1380.2835" x2="1380.2835" y1="5466.7087" y2="5502.9921"/>
    <line x1="1380.2835" x2="1549.6063" y1="5502.9921" y2="5502.9921"/>
    <line x1="2105.9528" x2="2105.9528" y1="4898.2677" y2="5067.5906"/>
    <line x1="2105.9528" x2="1839.874" y1="5067.5906" y2="5067.5906"/>
    <line x1="1839.874" x2="1839.874" y1="5067.5906" y2="5115.9685"/>
    <line x1="1839.874" x2="1839.874" y1="5115.9685" y2="5285.2913"/>
    <line x1="1839.874" x2="1839.874" y1="5285.2913" y2="5466.7087"/>
    <line x1="1839.874" x2="1585.8898" y1="5466.7087" y2="5466.7087"/>
    <line x1="1585.8898" x2="1585.8898" y1="5466.7087" y2="5502.9921"/>
    <line x1="1585.8898" x2="1331.9055" y1="5502.9921" y2="5502.9921"/>
    <line x1="1331.9055" x2="1331.9055" y1="5502.9921" y2="5539.2756"/>
    <line x1="1331.9055" x2="1513.3228" y1="5539.2756" y2="5539.2756"/>
    <line x1="2093.8583" x2="2093.8583" y1="4898.2677" y2="5079.685"/>
    <line x1="2093.8583" x2="1815.685" y1="5079.685" y2="5079.685"/>
    <line x1="1815.685" x2="1815.685" y1="5079.685" y2="5128.063"/>
    <line x1="1815.685" x2="1815.685" y1="5128.063" y2="5309.4803"/>
    <line x1="1815.685" x2="1815.685" y1="5309.4803" y2="5502.9921"/>
    <line x1="1815.685" x2="1549.6063" y1="5502.9921" y2="5502.9921"/>
    <line x1="1549.6063" x2="1549.6063" y1="5502.9921" y2="5539.2756"/>
    <line x1="1549.6063" x2="1283.5276" y1="5539.2756" y2="5539.2756"/>
    <line x1="1283.5276" x2="1283.5276" y1="5539.2756" y2="5575.5591"/>
    <line x1="1283.5276" x2="1477.0394" y1="5575.5591" y2="5575.5591"/>
    <line x1="2081.7638" x2="2081.7638" y1="4898.2677" y2="5091.7795"/>
    <line x1="2081.7638" x2="1791.4961" y1="5091.7795" y2="5091.7795"/>
    <line x1="1791.4961" x2="1791.4961" y1="5091.7795" y2="5140.1575"/>
    <line x1="1791.4961" x2="1791.4961" y1="5140.1575" y2="5333.6693"/>
    <line x1="1791.4961" x2="1791.4961" y1="5333.6693" y2="5539.2756"/>
    <line x1="1791.4961" x2="1513.3228" y1="5539.2756" y2="5539.2756"/>
    <line x1="1513.3228" x2="1513.3228" y1="5539.2756" y2="5575.5591"/>
    <line x1="1513.3228" x2="1235.1496" y1="5575.5591" y2="5575.5591"/>
    <line x1="1235.1496" x2="1235.1496" y1="5575.5591" y2="5611.8425"/>
    <line x1="1235.1496" x2="1440.7559" y1="5611.8425" y2="5611.8425"/>
    <line x1="2069.6693" x2="2069.6693" y1="4898.2677" y2="5103.874"/>
    <line x1="2069.6693" x2="1767.3071" y1="5103.874" y2="5103.874"/>
    <line x1="1767.3071" x2="1767.3071" y1="5103.874" y2="5152.252"/>
    <line x1="1767.3071" x2="1767.3071" y1="5152.252" y2="5357.8583"/>
    <line x1="1767.3071" x2="1767.3071" y1="5357.8583" y2="5575.5591"/>
    <line x1="1767.3071" x2="1477.0394" y1="5575.5591" y2="5575.5591"/>
    <line x1="1477.0394" x2="1477.0394" y1="5575.5591" y2="5611.8425"/>
    <line x1="1477.0394" x2="1186.7717" y1="5611.8425" y2="5611.8425"/>
    <line x1="1186.7717" x2="1186.7717" y1="5611.8425" y2="5648.126"/>
    <line x1="1186.7717" x2="1404.4724" y1="5648.126" y2="5648.126"/>
    <line x1="2057.5748" x2="2057.5748" y1="4898.2677" y2="5115.9685"/>
    <line x1="2057.5748" x2="1743.1181" y1="5115.9685" y2="5115.9685"/>
    <line x1="1743.1181" x2="1743.1181" y1="5115.9685" y2="5164.3465"/>
    <line x1="1743.1181" x2="1743.1181" y1="5164.3465" y2="5382.0472"/>
    <line x1="1743.1181" x2="1743.1181" y1="5382.0472" y2="5611.8425"/>
    <line x1="1743.1181" x2="1440.7559" y1="5611.8425" y2="5611.8425"/>
    <line x1="1440.7559" x2="1440.7559" y1="5611.8425" y2="5648.126"/>
    <line x1="1440.7559" x2="1138.3937" y1="5648.126" y2="5648.126"/>
    <line x1="1138.3937" x2="1138.3937" y1="5648.126" y2="5684.4094"/>
    <line x1="1138.3937" x2="1368.189" y1="5684.4094" y2="5684.4094"/>
    <line x1="2045.4803" x2="2045.4803" y1="4898.2677" y2="5128.063"/>
    <line x1="2045.4803" x2="1718.9291" y1="5128.063" y2="5128.063"/>
    <line x1="1718.9291" x2="1718.9291" y1="5128.063" y2="5176.4409"/>
    <line x1="1718.9291" x2="1718.9291" y1="5176.4409" y2="5406.2362"/>
    <line x1="1718.9291" x2="1718.9291" y1="5406.2362" y2="5648.126"/>
    <line x1="1718.9291" x2="1404.4724" y1="5648.126" y2="5648.126"/>
    <line x1="1404.4724" x2="1404.4724" y1="5648.126" y2="5684.4094"/>
    <line x1="1404.4724" x2="1090.0157" y1="5684.4094" y2="5684.4094"/>
    <line x1="1090.0157" x2="1090.0157" y1="5684.4094" y2="5720.6929"/>
    <line x1="1090.0157" x2="1331.9055" y1="5720.6929" y2="5720.6929"/>
    <line x1="2033.3858" x2="2033.3858" y1="4898.2677" y2="5140.1575"/>
    <line x1="2033.3858" x2="1694.7402" y1="5140.1575" y2="5140.1575"/>
    <line x1="1694.7402" x2="1694.7402" y1="5140.1575" y2="5188.5354"/>
    <line x1="1694.7402" x2="1694.7402" y1="5188.5354" y2="5430.4252"/>
    <line x1="1694.7402" x2="1694.7402" y1="5430.4252" y2="5684.4094"/>
    <line x1="1694.7402" x2="1368.189" y1="5684.4094" y2="5684.4094"/>
    <line x1="1368.189" x2="1368.189" y1="5684.4094" y2="5720.6929"/>
    <line x1="1368.189" x2="1041.6378" y1="5720.6929" y2="5720.6929"/>
    <line x1="1041.6378" x2="1041.6378" y1="5720.6929" y2="5756.9764"/>
    <line x1="1041.6378" x2="1295.622" y1="5756.9764" y2="5756.9764"/>
    <line x1="2021.2913" x2="2021.2913" y1="4898.2677" y2="5152.252"/>
    <line x1="2021.2913" x2="1670.5512" y1="5152.252" y2="5152.252"/>
    <line x1="1670.5512" x2="1670.5512" y1="5152.252" y2="5200.6299"/>
    <line x1="1670.5512" x2="1670.5512" y1="5200.6299" y2="5454.6142"/>
    <line x1="1670.5512" x2="1670.5512" y1="5454.6142" y2="5720.6929"/>
    <line x1="1670.5512" x2="1331.9055" y1="5720.6929" y2="5720.6929"/>
    <line x1="1331.9055" x2="1331.9055" y1="5720.6929" y2="5756.9764"/>
    <line x1="1331.9055" x2="993.2598" y1="5756.9764" y2="5756.9764"/>
    <line x1="993.2598" x2="993.2598" y1="5756.9764" y2="5793.2598"/>
    <line x1="993.2598" x2="1259.3386" y1="5793.2598" y2="5793.2598"/>
    <line x1="2009.1969" x2="2009.1969" y1="4898.2677" y2="5164.3465"/>
    <line x1="2009.1969" x2="1646.3622" y1="5164.3465" y2="5164.3465"/>
    <line x1="1646.3622" x2="1646.3622" y1="5164.3465" y2="5212.7244"/>
    <line x1="1646.3622" x2="1646.3622" y1="5212.7244" y2="5478.8031"/>
    <line x1="1646.3622" x2="1646.3622" y1="5478.8031" y2="5756.9764"/>
    <line x1="1646.3622" x2="1295.622" y1="5756.9764" y2="5756.9764"/>
    <line x1="1295.622" x2="1295.622" y1="5756.9764" y2="5793.2598"/>
    <line x1="1295.622" x2="944.8819" y1="5793.2598" y2="5793.2598"/>
    <line x1="944.8819" x2="944.8819" y1="5793.2598" y2="5829.5433"/>
    <line x1="944.8819" x2="1223.0551" y1="5829.5433" y2="5829.5433"/>
    <line x1="1997.1024" x2="1997.1024" y1="4898.2677" y2="5176.4409"/>
    <line x1="1997.1024" x2="1622.1732" y1="5176.4409" y2="5176.4409"/>
    <line x1="1622.1732" x2="1622.1732" y1="5176.4409" y2="5224.8189"/>
    <line x1="1622.1732" x2="1622.1732" y1="5224.8189" y2="5502.9921"/>
    <line x1="1622.1732" x2="1622.1732" y1="5502.9921" y2="5793.2598"/>
    <line x1="1622.1732" x2="1259.3386" y1="5793.2598" y2="5793.2598"/>
    <line x1="1259.3386" x2="1259.3386" y1="5793.2598" y2="5829.5433"/>
    <line x1="1259.3386" x2="896.5039" y1="5829.5433" y2="5829.5433"/>
    <line x1="896.5039" x2="896.5039" y1="5829.5433" y2="5865.8268"/>
    <line x1="896.5039" x2="1186.7717" y1="5865.8268" y2="5865.8268"/>
    <line x1="1985.0079" x2="1985.0079" y1="4898.2677" y2="5188.5354"/>
    <line x1="1985.0079" x2="1597.9843" y1="5188.5354" y2="5188.5354"/>
    <line x1="1597.9843" x2="1597.9843" y1="5188.5354" y2="5236.9134"/>
    <line x1="1597.9843" x2="1597.9843" y1="5236.9134" y2="5527.1811"/>
    <line x1="1597.9843" x2="1597.9843" y1="5527.1811" y2="5829.5433"/>
    <line x1="1597.9843" x2="1223.0551" y1="5829.5433" y2="5829.5433"/>
    <line x1="1223.0551" x2="1223.0551" y1="5829.5433" y2="5865.8268"/>
    <line x1="1223.0551" x2="848.126" y1="5865.8268" y2="5865.8268"/>
    <line x1="848.126" x2="848.126" y1="5865.8268" y2="5902.1102"/>
    <line x1="848.126" x2="1150.4882" y1="5902.1102" y2="5902.1102"/>
    <line x1="1972.9134" x2="1972.9134" y1="4898.2677" y2="5200.6299"/>
    <line x1="1972.9134" x2="1573.7953" y1="5200.6299" y2="5200.6299"/>
    <line x1="1573.7953" x2="1573.7953" y1="5200.6299" y2="5249.0079"/>
    <line x1="1573.7953" x2="1573.7953" y1="5249.0079" y2="5551.3701"/>
    <line x1="1573.7953" x2="1573.7953" y1="5551.3701" y2="5865.8268"/>
    <line x1="1573.7953" x2="1186.7717" y1="5865.8268" y2="5865.8268"/>
    <line x1="1186.7717" x2="1186.7717" y1="5865.8268" y2="5902.1102"/>
    <line x1="1186.7717" x2="799.748" y1="5902.1102" y2="5902.1102"/>
    <line x1="799.748" x2="799.748" y1="5902.1102" y2="5938.3937"/>
    <line x1="799.748" x2="1114.2047" y1="5938.3937" y2="5938.3937"/>
    <line x1="1960.8189" x2="1960.8189" y1="4898.2677" y2="5212.7244"/>
    <line x1="1960.8189" x2="1549.6063" y1="5212.7244" y2="5212.7244"/>
    <line x1="1549.6063" x2="1549.6063" y1="5212.7244" y2="5261.1024"/>
    <line x1="1549.6063" x2="1549.6063" y1="5261.1024" y2="5575.5591"/>
    <line x1="1549.6063" x2="1549.6063" y1="5575.5591" y2="5902.1102"/>
    <line x1="1549.6063" x2="1150.4882" y1="5902.1102" y2="5902.1102"/>
    <line x1="1150.4882" x2="1150.4882" y1="5902.1102" y2="5938.3937"/>
    <line x1="1150.4882" x2="751.3701" y1="5938.3937" y2="5938.3937"/>
    <line x1="751.3701" x2="751.3701" y1="5938.3937" y2="5974.6772"/>
    <line x1="751.3701" x2="1077.9213" y1="5974.6772" y2="5974.6772"/>
    <line x1="1948.7244" x2="1948.7244" y1="4898.2677" y2="5224.8189"/>
    <line x1="1948.7244" x2="1525.4173" y1="5224.8189" y2="5224.8189"/>
    <line x1="1525.4173" x2="1525.4173" y1="5224.8189" y2="5273.1969"/>
    <line x1="1525.4173" x2="1525.4173" y1="5273.1969" y2="5599.748"/>
    <line x1="1525.4173" x2="1525.4173" y1="5599.748" y2="5938.3937"/>
    <line x1="1525.4173" x2="1114.2047" y1="5938.3937" y2="5938.3937"/>
    <line x1="1114.2047" x2="1114.2047" y1="5938.3937" y2="5974.6772"/>
    <line x1="1114.2047" x2="702.9921" y1="5974.6772" y2="5974.6772"/>
    <line x1="702.9921" x2="702.9921" y1="5974.6772" y2="6010.9606"/>
    <line x1="702.9921" x2="1041.6378" y1="6010.9606" y2="6010.9606"/>
    <line x1="1936.6299" x2="1936.6299" y1="4898.2677" y2="5236.9134"/>
    <line x1="1936.6299" x2="1501.2283" y1="5236.9134" y2="5236.9134"/>
    <line x1="1501.2283" x2="1501.2283" y1="5236.9134" y2="5285.2913"/>
    <line x1="1501.2283" x2="1501.2283" y1="5285.2913" y2="5623.937"/>
    <line x1="1501.2283" x2="1501.2283" y1="5623.937" y2="5974.6772"/>
    <line x1="1501.2283" x2="1077.9213" y1="5974.6772" y2="5974.6772"/>
    <line x1="1077.9213" x2="1077.9213" y1="5974.6772" y2="6010.9606"/>
    <line x1="1077.9213" x2="654.6142" y1="6010.9606" y2="6010.9606"/>
    <line x1="654.6142" x2="654.6142" y1="6010.9606" y2="6047.2441"/>
    <line x1="654.6142" x2="1005.3543" y1="6047.2441" y2="6047.2441"/>
    <line x1="1924.5354" x2="1924.5354" y1="4898.2677" y2="5249.0079"/>
    <line x1="1924.5354" x2="1477.0394" y1="5249.0079" y2="5249.0079"/>
    <line x1="1477.0394" x2="1477.0394" y1="5249.0079" y2="5297.3858"/>
    <line x1="1477.0394" x2="1477.0394" y1="5297.3858" y2="5648.126"/>
    <line x1="1477.0394" x2="1477.0394" y1="5648.126" y2="6010.9606"/>
    <line x1="1477.0394" x2="1041.6378" y1="6010.9606" y2="6010.9606"/>
    <line x1="1041.6378" x2="1041.6378" y1="6010.9606" y2="6047.2441"/>
    <line x1="1041.6378" x2="606.2362" y1="6047.2441" y2="6047.2441"/>
    <line x1="606.2362" x2="606.2362" y1="6047.2441" y2="6083.5276"/>
    <line x1="606.2362" x2="969.0709" y1="6083.5276" y2="6083.5276"/>
    <line x1="1912.4409" x2="1912.4409" y1="4898.2677" y2="5261.1024"/>
    <line x1="1912.4409" x2="1452.8504" y1="5261.1024" y2="5261.1024"/>
    <line x1="1452.8504" x2="1452.8504" y1="5261.1024" y2="5309.4803"/>
    <line x1="1452.8504" x2="1452.8504" y1="5309.4803" y2="5672.315"/>
    <line x1="1452.8504" x2="1452.8504" y1="5672.315" y2="6047.2441"/>
    <line x1="1452.8504" x2="1005.3543" y1="6047.2441" y2="6047.2441"/>
    <line x1="1005.3543" x2="1005.3543" y1="6047.2441" y2="6083.5276"/>
    <line x1="1005.3543" x2="557.8583" y1="6083.5276" y2="6083.5276"/>
    <line x1="557.8583" x2="557.8583" y1="6083.5276" y2="6119.811"/>
    <line x1="557.8583" x2="932.7874" y1="6119.811" y2="6119.811"/>
    <line x1="1900.3465" x2="1900.3465" y1="4898.2677" y2="5273.1969"/>
    <line x1="1900.3465" x2="1428.6614" y1="5273.1969" y2="5273.1969"/>
    <line x1="1428.6614" x2="1428.6614" y1="5273.1969" y2="5321.5748"/>
    <line x1="1428.6614" x2="1428.6614" y1="5321.5748" y2="5696.5039"/>
    <line x1="1428.6614" x2="1428.6614" y1="5696.5039" y2="6083.5276"/>
    <line x1="1428.6614" x2="969.0709" y1="6083.5276" y2="6083.5276"/>
    <line x1="969.0709" x2="969.0709" y1="6083.5276" y2="6119.811"/>
    <line x1="969.0709" x2="509.4803" y1="6119.811" y2="6119.811"/>
    <line x1="509.4803" x2="509.4803" y1="6119.811" y2="6156.0945"/>
    <line x1="509.4803" x2="896.5039" y1="6156.0945" y2="6156.0945"/>
    <line x1="1888.252" x2="1888.252" y1="4898.2677" y2="5285.2913"/>
    <line x1="1888.252" x2="1404.4724" y1="5285.2913" y2="5285.2913"/>
    <line x1="1404.4724" x2="1404.4724" y1="5285.2913" y2="5333.6693"/>
    <line x1="1404.4724" x2="1404.4724" y1="5333.6693" y2="5720.6929"/>
    <line x1="1404.4724" x2="1404.4724" y1="5720.6929" y2="6119.811"/>
    <line x1="1404.4724" x2="932.7874" y1="6119.811" y2="6119.811"/>
    <line x1="932.7874" x2="932.7874" y1="6119.811" y2="6156.0945"/>
    <line x1="932.7874" x2="461.1024" y1="6156.0945" y2="6156.0945"/>
    <line x1="461.1024" x2="461.1024" y1="6156.0945" y2="6192.378"/>
    <line x1="461.1024" x2="860.2205" y1="6192.378" y2="6192.378"/>
    <line x1="1876.1575" x2="1876.1575" y1="4898.2677" y2="5297.3858"/>
    <line x1="1876.1575" x2="1380.2835" y1="5297.3858" y2="5297.3858"/>
    <line x1="1380.2835" x2="1380.2835" y1="5297.3858" y2="5345.7638"/>
    <line x1="1380.2835" x2="1380.2835" y1="5345.7638" y2="5744.8819"/>
    <line x1="1380.2835" x2="1380.2835" y1="5744.8819" y2="6156.0945"/>
    <line x1="1380.2835" x2="896.5039" y1="6156.0945" y2="6156.0945"/>
    <line x1="896.5039" x2="896.5039" y1="6156.0945" y2="6192.378"/>
    <line x1="896.5039" x2="412.7244" y1="6192.378" y2="6192.378"/>
    <line x1="412.7244" x2="412.7244" y1="6192.378" y2="6228.6614"/>
    <line x1="412.7244" x2="823.937" y1="6228.6614" y2="6228.6614"/>
    <line x1="2512.8893" x2="2525.7174" y1="4757.9287" y2="4745.1005"/>
    <line x1="2525.7174" x2="2551.3737" y1="4745.1005" y2="4719.4443"/>
    <line x1="2551.3737" x2="2568.4779" y1="4719.4443" y2="4702.3401"/>
    <line x1="2568.4779" x2="2555.6498" y1="4702.3401" y2="4689.5119"/>
    <line x1="2555.6498" x2="2568.4779" y1="4689.5119" y2="4676.6838"/>
    <line x1="2568.4779" x2="2594.1342" y1="4676.6838" y2="4651.0275"/>
    <line x1="2594.1342" x2="2611.2384" y1="4651.0275" y2="4633.9233"/>
    <line x1="2611.2384" x2="2594.1342" y1="4633.9233" y2="4616.8191"/>
    <line x1="2594.1342" x2="2606.9623" y1="4616.8191" y2="4603.991"/>
    <line x1="2606.9623" x2="2594.1342" y1="4603.991" y2="4591.1628"/>
    <line x1="2508.6133" x2="2517.1654" y1="4753.6526" y2="4745.1005"/>
    <line x1="2517.1654" x2="2534.2695" y1="4745.1005" y2="4727.9963"/>
    <line x1="2534.2695" x2="2547.0977" y1="4727.9963" y2="4715.1682"/>
    <line x1="2547.0977" x2="2538.5456" y1="4715.1682" y2="4706.6161"/>
    <line x1="2538.5456" x2="2551.3737" y1="4706.6161" y2="4702.3401"/>
    <line x1="2551.3737" x2="2577.03" y1="4702.3401" y2="4693.788"/>
    <line x1="2577.03" x2="2589.8582" y1="4693.788" y2="4680.9598"/>
    <line x1="2589.8582" x2="2577.03" y1="4680.9598" y2="4668.1317"/>
    <line x1="2577.03" x2="2585.5821" y1="4668.1317" y2="4659.5796"/>
    <line x1="2585.5821" x2="2577.03" y1="4659.5796" y2="4651.0275"/>
    <line x1="2504.3372" x2="2508.6133" y1="4749.3766" y2="4745.1005"/>
    <line x1="2508.6133" x2="2517.1654" y1="4745.1005" y2="4736.5484"/>
    <line x1="2517.1654" x2="2525.7174" y1="4736.5484" y2="4727.9963"/>
    <line x1="2525.7174" x2="2521.4414" y1="4727.9963" y2="4723.7203"/>
    <line x1="2521.4414" x2="2534.2695" y1="4723.7203" y2="4727.9963"/>
    <line x1="2534.2695" x2="2559.9258" y1="4727.9963" y2="4736.5484"/>
    <line x1="2559.9258" x2="2568.4779" y1="4736.5484" y2="4727.9963"/>
    <line x1="2568.4779" x2="2559.9258" y1="4727.9963" y2="4719.4443"/>
    <line x1="2559.9258" x2="2564.2019" y1="4719.4443" y2="4715.1682"/>
    <line x1="2564.2019" x2="2559.9258" y1="4715.1682" y2="4710.8922"/>
    <line x1="2500.0612" x2="2500.0612" y1="4745.1005" y2="4745.1005"/>
    <line x1="2500.0612" x2="2500.0612" y1="4745.1005" y2="4745.1005"/>
    <line x1="2500.0612" x2="2504.3372" y1="4745.1005" y2="4740.8245"/>
    <line x1="2504.3372" x2="2504.3372" y1="4740.8245" y2="4740.8245"/>
    <line x1="2504.3372" x2="2517.1654" y1="4740.8245" y2="4753.6526"/>
    <line x1="2517.1654" x2="2542.8216" y1="4753.6526" y2="4779.3089"/>
    <line x1="2542.8216" x2="2547.0977" y1="4779.3089" y2="4775.0329"/>
    <line x1="2547.0977" x2="2542.8216" y1="4775.0329" y2="4770.7568"/>
    <line x1="2542.8216" x2="2542.8216" y1="4770.7568" y2="4770.7568"/>
    <line x1="2542.8216" x2="2542.8216" y1="4770.7568" y2="4770.7568"/>
    <line x1="2495.7851" x2="2491.5091" y1="4740.8245" y2="4745.1005"/>
    <line x1="2491.5091" x2="2482.957" y1="4745.1005" y2="4753.6526"/>
    <line x1="2482.957" x2="2482.957" y1="4753.6526" y2="4753.6526"/>
    <line x1="2482.957" x2="2487.233" y1="4753.6526" y2="4757.9287"/>
    <line x1="2487.233" x2="2500.0612" y1="4757.9287" y2="4779.3089"/>
    <line x1="2500.0612" x2="2525.7174" y1="4779.3089" y2="4822.0694"/>
    <line x1="2525.7174" x2="2525.7174" y1="4822.0694" y2="4822.0694"/>
    <line x1="2525.7174" x2="2525.7174" y1="4822.0694" y2="4822.0694"/>
    <line x1="2525.7174" x2="2521.4414" y1="4822.0694" y2="4826.3454"/>
    <line x1="2521.4414" x2="2525.7174" y1="4826.3454" y2="4830.6215"/>
    <line x1="2491.5091" x2="2482.957" y1="4736.5484" y2="4745.1005"/>
    <line x1="2482.957" x2="2465.8528" y1="4745.1005" y2="4762.2047"/>
    <line x1="2465.8528" x2="2461.5767" y1="4762.2047" y2="4766.4808"/>
    <line x1="2461.5767" x2="2470.1288" y1="4766.4808" y2="4775.0329"/>
    <line x1="2470.1288" x2="2482.957" y1="4775.0329" y2="4804.9652"/>
    <line x1="2482.957" x2="2508.6133" y1="4804.9652" y2="4864.8299"/>
    <line x1="2508.6133" x2="2504.3372" y1="4864.8299" y2="4869.1059"/>
    <line x1="2504.3372" x2="2508.6133" y1="4869.1059" y2="4873.382"/>
    <line x1="2508.6133" x2="2500.0612" y1="4873.382" y2="4881.934"/>
    <line x1="2500.0612" x2="2508.6133" y1="4881.934" y2="4890.4861"/>
    <line x1="2487.233" x2="2474.4049" y1="4732.2724" y2="4745.1005"/>
    <line x1="2474.4049" x2="2448.7486" y1="4745.1005" y2="4770.7568"/>
    <line x1="2448.7486" x2="2440.1965" y1="4770.7568" y2="4779.3089"/>
    <line x1="2440.1965" x2="2453.0246" y1="4779.3089" y2="4792.1371"/>
    <line x1="2453.0246" x2="2465.8528" y1="4792.1371" y2="4830.6215"/>
    <line x1="2465.8528" x2="2491.5091" y1="4830.6215" y2="4907.5903"/>
    <line x1="2491.5091" x2="2482.957" y1="4907.5903" y2="4916.1424"/>
    <line x1="2482.957" x2="2491.5091" y1="4916.1424" y2="4924.6945"/>
    <line x1="2491.5091" x2="2478.6809" y1="4924.6945" y2="4937.5227"/>
    <line x1="2478.6809" x2="2491.5091" y1="4937.5227" y2="4950.3508"/>
    <line x1="2482.957" x2="2465.8528" y1="4727.9963" y2="4745.1005"/>
    <line x1="2465.8528" x2="2431.6444" y1="4745.1005" y2="4779.3089"/>
    <line x1="2431.6444" x2="2418.8163" y1="4779.3089" y2="4792.1371"/>
    <line x1="2418.8163" x2="2435.9205" y1="4792.1371" y2="4809.2412"/>
    <line x1="2435.9205" x2="2448.7486" y1="4809.2412" y2="4856.2778"/>
    <line x1="2448.7486" x2="2474.4049" y1="4856.2778" y2="4950.3508"/>
    <line x1="2474.4049" x2="2461.5767" y1="4950.3508" y2="4963.1789"/>
    <line x1="2461.5767" x2="2474.4049" y1="4963.1789" y2="4976.0071"/>
    <line x1="2474.4049" x2="2457.3007" y1="4976.0071" y2="4993.1113"/>
    <line x1="2457.3007" x2="2474.4049" y1="4993.1113" y2="5010.2155"/>
    <line x1="2478.6809" x2="2457.3007" y1="4723.7203" y2="4745.1005"/>
    <line x1="2457.3007" x2="2414.5402" y1="4745.1005" y2="4787.861"/>
    <line x1="2414.5402" x2="2397.436" y1="4787.861" y2="4804.9652"/>
    <line x1="2397.436" x2="2418.8163" y1="4804.9652" y2="4826.3454"/>
    <line x1="2418.8163" x2="2431.6444" y1="4826.3454" y2="4881.934"/>
    <line x1="2431.6444" x2="2457.3007" y1="4881.934" y2="4993.1113"/>
    <line x1="2457.3007" x2="2440.1965" y1="4993.1113" y2="5010.2155"/>
    <line x1="2440.1965" x2="2457.3007" y1="5010.2155" y2="5027.3197"/>
    <line x1="2457.3007" x2="2435.9205" y1="5027.3197" y2="5048.6999"/>
    <line x1="2435.9205" x2="2457.3007" y1="5048.6999" y2="5070.0801"/>
    <line x1="2474.4049" x2="2448.7486" y1="4719.4443" y2="4745.1005"/>
    <line x1="2448.7486" x2="2397.436" y1="4745.1005" y2="4796.4131"/>
    <line x1="2397.436" x2="2376.0558" y1="4796.4131" y2="4817.7933"/>
    <line x1="2376.0558" x2="2401.7121" y1="4817.7933" y2="4843.4496"/>
    <line x1="2401.7121" x2="2414.5402" y1="4843.4496" y2="4907.5903"/>
    <line x1="2414.5402" x2="2440.1965" y1="4907.5903" y2="5035.8718"/>
    <line x1="2440.1965" x2="2418.8163" y1="5035.8718" y2="5057.252"/>
    <line x1="2418.8163" x2="2440.1965" y1="5057.252" y2="5078.6322"/>
    <line x1="2440.1965" x2="2414.5402" y1="5078.6322" y2="5104.2885"/>
    <line x1="2414.5402" x2="2440.1965" y1="5104.2885" y2="5129.9448"/>
    <line x1="2470.1288" x2="2440.1965" y1="4715.1682" y2="4745.1005"/>
    <line x1="2440.1965" x2="2380.3318" y1="4745.1005" y2="4804.9652"/>
    <line x1="2380.3318" x2="2354.6756" y1="4804.9652" y2="4830.6215"/>
    <line x1="2354.6756" x2="2384.6079" y1="4830.6215" y2="4860.5538"/>
    <line x1="2384.6079" x2="2397.436" y1="4860.5538" y2="4933.2466"/>
    <line x1="2397.436" x2="2423.0923" y1="4933.2466" y2="5078.6322"/>
    <line x1="2423.0923" x2="2397.436" y1="5078.6322" y2="5104.2885"/>
    <line x1="2397.436" x2="2423.0923" y1="5104.2885" y2="5129.9448"/>
    <line x1="2423.0923" x2="2393.16" y1="5129.9448" y2="5159.8771"/>
    <line x1="2393.16" x2="2423.0923" y1="5159.8771" y2="5189.8095"/>
    <line x1="2465.8528" x2="2431.6444" y1="4710.8922" y2="4745.1005"/>
    <line x1="2431.6444" x2="2363.2277" y1="4745.1005" y2="4813.5173"/>
    <line x1="2363.2277" x2="2333.2953" y1="4813.5173" y2="4843.4496"/>
    <line x1="2333.2953" x2="2367.5037" y1="4843.4496" y2="4877.658"/>
    <line x1="2367.5037" x2="2380.3318" y1="4877.658" y2="4958.9029"/>
    <line x1="2380.3318" x2="2405.9881" y1="4958.9029" y2="5121.3927"/>
    <line x1="2405.9881" x2="2376.0558" y1="5121.3927" y2="5151.325"/>
    <line x1="2376.0558" x2="2405.9881" y1="5151.325" y2="5181.2574"/>
    <line x1="2405.9881" x2="2371.7797" y1="5181.2574" y2="5215.4657"/>
    <line x1="2371.7797" x2="2405.9881" y1="5215.4657" y2="5249.6741"/>
    <line x1="2461.5767" x2="2423.0923" y1="4706.6161" y2="4745.1005"/>
    <line x1="2423.0923" x2="2346.1235" y1="4745.1005" y2="4822.0694"/>
    <line x1="2346.1235" x2="2311.9151" y1="4822.0694" y2="4856.2778"/>
    <line x1="2311.9151" x2="2350.3995" y1="4856.2778" y2="4894.7622"/>
    <line x1="2350.3995" x2="2363.2277" y1="4894.7622" y2="4984.5592"/>
    <line x1="2363.2277" x2="2388.8839" y1="4984.5592" y2="5164.1532"/>
    <line x1="2388.8839" x2="2354.6756" y1="5164.1532" y2="5198.3615"/>
    <line x1="2354.6756" x2="2388.8839" y1="5198.3615" y2="5232.5699"/>
    <line x1="2388.8839" x2="2350.3995" y1="5232.5699" y2="5271.0544"/>
    <line x1="2350.3995" x2="2388.8839" y1="5271.0544" y2="5309.5388"/>
    <line x1="2457.3007" x2="2414.5402" y1="4702.3401" y2="4745.1005"/>
    <line x1="2414.5402" x2="2329.0193" y1="4745.1005" y2="4830.6215"/>
    <line x1="2329.0193" x2="2290.5348" y1="4830.6215" y2="4869.1059"/>
    <line x1="2290.5348" x2="2333.2953" y1="4869.1059" y2="4911.8664"/>
    <line x1="2333.2953" x2="2346.1235" y1="4911.8664" y2="5010.2155"/>
    <line x1="2346.1235" x2="2371.7797" y1="5010.2155" y2="5206.9136"/>
    <line x1="2371.7797" x2="2333.2953" y1="5206.9136" y2="5245.3981"/>
    <line x1="2333.2953" x2="2371.7797" y1="5245.3981" y2="5283.8825"/>
    <line x1="2371.7797" x2="2329.0193" y1="5283.8825" y2="5326.643"/>
    <line x1="2329.0193" x2="2371.7797" y1="5326.643" y2="5369.4034"/>
    <line x1="2453.0246" x2="2405.9881" y1="4698.064" y2="4745.1005"/>
    <line x1="2405.9881" x2="2311.9151" y1="4745.1005" y2="4839.1736"/>
    <line x1="2311.9151" x2="2269.1546" y1="4839.1736" y2="4881.934"/>
    <line x1="2269.1546" x2="2316.1911" y1="4881.934" y2="4928.9706"/>
    <line x1="2316.1911" x2="2329.0193" y1="4928.9706" y2="5035.8718"/>
    <line x1="2329.0193" x2="2354.6756" y1="5035.8718" y2="5249.6741"/>
    <line x1="2354.6756" x2="2311.9151" y1="5249.6741" y2="5292.4346"/>
    <line x1="2311.9151" x2="2354.6756" y1="5292.4346" y2="5335.1951"/>
    <line x1="2354.6756" x2="2307.639" y1="5335.1951" y2="5382.2316"/>
    <line x1="2307.639" x2="2354.6756" y1="5382.2316" y2="5429.2681"/>
    <line x1="2448.7486" x2="2397.436" y1="4693.788" y2="4745.1005"/>
    <line x1="2397.436" x2="2294.8109" y1="4745.1005" y2="4847.7257"/>
    <line x1="2294.8109" x2="2247.7744" y1="4847.7257" y2="4894.7622"/>
    <line x1="2247.7744" x2="2299.0869" y1="4894.7622" y2="4946.0748"/>
    <line x1="2299.0869" x2="2311.9151" y1="4946.0748" y2="5061.528"/>
    <line x1="2311.9151" x2="2337.5714" y1="5061.528" y2="5292.4346"/>
    <line x1="2337.5714" x2="2290.5348" y1="5292.4346" y2="5339.4711"/>
    <line x1="2290.5348" x2="2337.5714" y1="5339.4711" y2="5386.5076"/>
    <line x1="2337.5714" x2="2286.2588" y1="5386.5076" y2="5437.8202"/>
    <line x1="2286.2588" x2="2337.5714" y1="5437.8202" y2="5489.1328"/>
    <line x1="2444.4726" x2="2388.8839" y1="4689.5119" y2="4745.1005"/>
    <line x1="2388.8839" x2="2277.7067" y1="4745.1005" y2="4856.2778"/>
    <line x1="2277.7067" x2="2226.3941" y1="4856.2778" y2="4907.5903"/>
    <line x1="2226.3941" x2="2281.9828" y1="4907.5903" y2="4963.1789"/>
    <line x1="2281.9828" x2="2294.8109" y1="4963.1789" y2="5087.1843"/>
    <line x1="2294.8109" x2="2320.4672" y1="5087.1843" y2="5335.1951"/>
    <line x1="2320.4672" x2="2269.1546" y1="5335.1951" y2="5386.5076"/>
    <line x1="2269.1546" x2="2320.4672" y1="5386.5076" y2="5437.8202"/>
    <line x1="2320.4672" x2="2264.8786" y1="5437.8202" y2="5493.4088"/>
    <line x1="2264.8786" x2="2320.4672" y1="5493.4088" y2="5548.9974"/>
    <line x1="2440.1965" x2="2380.3318" y1="4685.2359" y2="4745.1005"/>
    <line x1="2380.3318" x2="2260.6025" y1="4745.1005" y2="4864.8299"/>
    <line x1="2260.6025" x2="2205.0139" y1="4864.8299" y2="4920.4185"/>
    <line x1="2205.0139" x2="2264.8786" y1="4920.4185" y2="4980.2831"/>
    <line x1="2264.8786" x2="2277.7067" y1="4980.2831" y2="5112.8406"/>
    <line x1="2277.7067" x2="2303.363" y1="5112.8406" y2="5377.9555"/>
    <line x1="2303.363" x2="2247.7744" y1="5377.9555" y2="5433.5442"/>
    <line x1="2247.7744" x2="2303.363" y1="5433.5442" y2="5489.1328"/>
    <line x1="2303.363" x2="2243.4983" y1="5489.1328" y2="5548.9974"/>
    <line x1="2243.4983" x2="2303.363" y1="5548.9974" y2="5608.8621"/>
    <line x1="2435.9205" x2="2371.7797" y1="4680.9598" y2="4745.1005"/>
    <line x1="2371.7797" x2="2243.4983" y1="4745.1005" y2="4873.382"/>
    <line x1="2243.4983" x2="2183.6337" y1="4873.382" y2="4933.2466"/>
    <line x1="2183.6337" x2="2247.7744" y1="4933.2466" y2="4997.3873"/>
    <line x1="2247.7744" x2="2260.6025" y1="4997.3873" y2="5138.4969"/>
    <line x1="2260.6025" x2="2286.2588" y1="5138.4969" y2="5420.716"/>
    <line x1="2286.2588" x2="2226.3941" y1="5420.716" y2="5480.5807"/>
    <line x1="2226.3941" x2="2286.2588" y1="5480.5807" y2="5540.4453"/>
    <line x1="2286.2588" x2="2222.1181" y1="5540.4453" y2="5604.586"/>
    <line x1="2222.1181" x2="2286.2588" y1="5604.586" y2="5668.7268"/>
    <line x1="2431.6444" x2="2363.2277" y1="4676.6838" y2="4745.1005"/>
    <line x1="2363.2277" x2="2226.3941" y1="4745.1005" y2="4881.934"/>
    <line x1="2226.3941" x2="2162.2534" y1="4881.934" y2="4946.0748"/>
    <line x1="2162.2534" x2="2230.6702" y1="4946.0748" y2="5014.4915"/>
    <line x1="2230.6702" x2="2243.4983" y1="5014.4915" y2="5164.1532"/>
    <line x1="2243.4983" x2="2269.1546" y1="5164.1532" y2="5463.4765"/>
    <line x1="2269.1546" x2="2205.0139" y1="5463.4765" y2="5527.6172"/>
    <line x1="2205.0139" x2="2269.1546" y1="5527.6172" y2="5591.7579"/>
    <line x1="2269.1546" x2="2200.7379" y1="5591.7579" y2="5660.1747"/>
    <line x1="2200.7379" x2="2269.1546" y1="5660.1747" y2="5728.5914"/>
    <line x1="2427.3684" x2="2354.6756" y1="4672.4077" y2="4745.1005"/>
    <line x1="2354.6756" x2="2209.2899" y1="4745.1005" y2="4890.4861"/>
    <line x1="2209.2899" x2="2140.8732" y1="4890.4861" y2="4958.9029"/>
    <line x1="2140.8732" x2="2213.566" y1="4958.9029" y2="5031.5957"/>
    <line x1="2213.566" x2="2226.3941" y1="5031.5957" y2="5189.8095"/>
    <line x1="2226.3941" x2="2252.0504" y1="5189.8095" y2="5506.237"/>
    <line x1="2252.0504" x2="2183.6337" y1="5506.237" y2="5574.6537"/>
    <line x1="2183.6337" x2="2252.0504" y1="5574.6537" y2="5643.0705"/>
    <line x1="2252.0504" x2="2179.3576" y1="5643.0705" y2="5715.7633"/>
    <line x1="2179.3576" x2="2252.0504" y1="5715.7633" y2="5788.4561"/>
    <line x1="2423.0923" x2="2346.1235" y1="4668.1317" y2="4745.1005"/>
    <line x1="2346.1235" x2="2192.1858" y1="4745.1005" y2="4899.0382"/>
    <line x1="2192.1858" x2="2119.493" y1="4899.0382" y2="4971.731"/>
    <line x1="2119.493" x2="2196.4618" y1="4971.731" y2="5048.6999"/>
    <line x1="2196.4618" x2="2209.2899" y1="5048.6999" y2="5215.4657"/>
    <line x1="2209.2899" x2="2234.9462" y1="5215.4657" y2="5548.9974"/>
    <line x1="2234.9462" x2="2162.2534" y1="5548.9974" y2="5621.6902"/>
    <line x1="2162.2534" x2="2234.9462" y1="5621.6902" y2="5694.383"/>
    <line x1="2234.9462" x2="2157.9774" y1="5694.383" y2="5771.3519"/>
    <line x1="2157.9774" x2="2234.9462" y1="5771.3519" y2="5848.3207"/>
    <line x1="2418.8163" x2="2337.5714" y1="4663.8556" y2="4745.1005"/>
    <line x1="2337.5714" x2="2175.0816" y1="4745.1005" y2="4907.5903"/>
    <line x1="2175.0816" x2="2098.1127" y1="4907.5903" y2="4984.5592"/>
    <line x1="2098.1127" x2="2179.3576" y1="4984.5592" y2="5065.8041"/>
    <line x1="2179.3576" x2="2192.1858" y1="5065.8041" y2="5241.122"/>
    <line x1="2192.1858" x2="2217.842" y1="5241.122" y2="5591.7579"/>
    <line x1="2217.842" x2="2140.8732" y1="5591.7579" y2="5668.7268"/>
    <line x1="2140.8732" x2="2217.842" y1="5668.7268" y2="5745.6956"/>
    <line x1="2217.842" x2="2136.5971" y1="5745.6956" y2="5826.9405"/>
    <line x1="2136.5971" x2="2217.842" y1="5826.9405" y2="5908.1854"/>
    <line x1="2414.5402" x2="2329.0193" y1="4659.5796" y2="4745.1005"/>
    <line x1="2329.0193" x2="2157.9774" y1="4745.1005" y2="4916.1424"/>
    <line x1="2157.9774" x2="2076.7325" y1="4916.1424" y2="4997.3873"/>
    <line x1="2076.7325" x2="2162.2534" y1="4997.3873" y2="5082.9083"/>
    <line x1="2162.2534" x2="2175.0816" y1="5082.9083" y2="5266.7783"/>
    <line x1="2175.0816" x2="2200.7379" y1="5266.7783" y2="5634.5184"/>
    <line x1="2200.7379" x2="2119.493" y1="5634.5184" y2="5715.7633"/>
    <line x1="2119.493" x2="2200.7379" y1="5715.7633" y2="5797.0082"/>
    <line x1="2200.7379" x2="2115.2169" y1="5797.0082" y2="5882.5291"/>
    <line x1="2115.2169" x2="2200.7379" y1="5882.5291" y2="5968.0501"/>
    <line x1="2410.2642" x2="2320.4672" y1="4655.3035" y2="4745.1005"/>
    <line x1="2320.4672" x2="2140.8732" y1="4745.1005" y2="4924.6945"/>
    <line x1="2140.8732" x2="2055.3522" y1="4924.6945" y2="5010.2155"/>
    <line x1="2055.3522" x2="2145.1492" y1="5010.2155" y2="5100.0125"/>
    <line x1="2145.1492" x2="2157.9774" y1="5100.0125" y2="5292.4346"/>
    <line x1="2157.9774" x2="2183.6337" y1="5292.4346" y2="5677.2788"/>
    <line x1="2183.6337" x2="2098.1127" y1="5677.2788" y2="5762.7998"/>
    <line x1="2098.1127" x2="2183.6337" y1="5762.7998" y2="5848.3207"/>
    <line x1="2183.6337" x2="2093.8367" y1="5848.3207" y2="5938.1177"/>
    <line x1="2093.8367" x2="2183.6337" y1="5938.1177" y2="6027.9147"/>
    <line x1="2405.9881" x2="2311.9151" y1="4651.0275" y2="4745.1005"/>
    <line x1="2311.9151" x2="2123.769" y1="4745.1005" y2="4933.2466"/>
    <line x1="2123.769" x2="2033.972" y1="4933.2466" y2="5023.0436"/>
    <line x1="2033.972" x2="2128.045" y1="5023.0436" y2="5117.1167"/>
    <line x1="2128.045" x2="2140.8732" y1="5117.1167" y2="5318.0909"/>
    <line x1="2140.8732" x2="2166.5295" y1="5318.0909" y2="5720.0393"/>
    <line x1="2166.5295" x2="2076.7325" y1="5720.0393" y2="5809.8363"/>
    <line x1="2076.7325" x2="2166.5295" y1="5809.8363" y2="5899.6333"/>
    <line x1="2166.5295" x2="2072.4564" y1="5899.6333" y2="5993.7063"/>
    <line x1="2072.4564" x2="2166.5295" y1="5993.7063" y2="6087.7794"/>
    <line x1="2401.7121" x2="2303.363" y1="4646.7514" y2="4745.1005"/>
    <line x1="2303.363" x2="2106.6648" y1="4745.1005" y2="4941.7987"/>
    <line x1="2106.6648" x2="2012.5918" y1="4941.7987" y2="5035.8718"/>
    <line x1="2012.5918" x2="2110.9409" y1="5035.8718" y2="5134.2208"/>
    <line x1="2110.9409" x2="2123.769" y1="5134.2208" y2="5343.7472"/>
    <line x1="2123.769" x2="2149.4253" y1="5343.7472" y2="5762.7998"/>
    <line x1="2149.4253" x2="2055.3522" y1="5762.7998" y2="5856.8728"/>
    <line x1="2055.3522" x2="2149.4253" y1="5856.8728" y2="5950.9459"/>
    <line x1="2149.4253" x2="2051.0762" y1="5950.9459" y2="6049.295"/>
    <line x1="2051.0762" x2="2149.4253" y1="6049.295" y2="6147.6441"/>
    <line x1="2397.436" x2="2294.8109" y1="4642.4754" y2="4745.1005"/>
    <line x1="2294.8109" x2="2089.5606" y1="4745.1005" y2="4950.3508"/>
    <line x1="2089.5606" x2="1991.2115" y1="4950.3508" y2="5048.6999"/>
    <line x1="1991.2115" x2="2093.8367" y1="5048.6999" y2="5151.325"/>
    <line x1="2093.8367" x2="2106.6648" y1="5151.325" y2="5369.4034"/>
    <line x1="2106.6648" x2="2132.3211" y1="5369.4034" y2="5805.5603"/>
    <line x1="2132.3211" x2="2033.972" y1="5805.5603" y2="5903.9094"/>
    <line x1="2033.972" x2="2132.3211" y1="5903.9094" y2="6002.2584"/>
    <line x1="2132.3211" x2="2029.696" y1="6002.2584" y2="6104.8836"/>
    <line x1="2029.696" x2="2132.3211" y1="6104.8836" y2="6207.5087"/>
    <line x1="2393.16" x2="2286.2588" y1="4638.1994" y2="4745.1005"/>
    <line x1="2286.2588" x2="2072.4564" y1="4745.1005" y2="4958.9029"/>
    <line x1="2072.4564" x2="1969.8313" y1="4958.9029" y2="5061.528"/>
    <line x1="1969.8313" x2="2076.7325" y1="5061.528" y2="5168.4292"/>
    <line x1="2076.7325" x2="2089.5606" y1="5168.4292" y2="5395.0597"/>
    <line x1="2089.5606" x2="2115.2169" y1="5395.0597" y2="5848.3207"/>
    <line x1="2115.2169" x2="2012.5918" y1="5848.3207" y2="5950.9459"/>
    <line x1="2012.5918" x2="2115.2169" y1="5950.9459" y2="6053.571"/>
    <line x1="2115.2169" x2="2008.3157" y1="6053.571" y2="6160.4722"/>
    <line x1="2008.3157" x2="2115.2169" y1="6160.4722" y2="6267.3734"/>
    <line x1="2388.8839" x2="2277.7067" y1="4633.9233" y2="4745.1005"/>
    <line x1="2277.7067" x2="2055.3522" y1="4745.1005" y2="4967.455"/>
    <line x1="2055.3522" x2="1948.4511" y1="4967.455" y2="5074.3562"/>
    <line x1="1948.4511" x2="2059.6283" y1="5074.3562" y2="5185.5334"/>
    <line x1="2059.6283" x2="2072.4564" y1="5185.5334" y2="5420.716"/>
    <line x1="2072.4564" x2="2098.1127" y1="5420.716" y2="5891.0812"/>
    <line x1="2098.1127" x2="1991.2115" y1="5891.0812" y2="5997.9824"/>
    <line x1="1991.2115" x2="2098.1127" y1="5997.9824" y2="6104.8836"/>
    <line x1="2098.1127" x2="1986.9355" y1="6104.8836" y2="6216.0608"/>
    <line x1="1986.9355" x2="2098.1127" y1="6216.0608" y2="6327.238"/>
    <line x1="2692.5354" x2="2692.5354" y1="4626.1417" y2="4601.9528"/>
    <line x1="2692.5354" x2="2650.2047" y1="4601.9528" y2="4601.9528"/>
    <line x1="2650.2047" x2="2626.0157" y1="4601.9528" y2="4601.9528"/>
    <line x1="2626.0157" x2="2626.0157" y1="4601.9528" y2="4583.811"/>
    <line x1="2626.0157" x2="2626.0157" y1="4583.811" y2="4547.5276"/>
    <line x1="2626.0157" x2="2626.0157" y1="4547.5276" y2="4523.3386"/>
    <line x1="2626.0157" x2="2589.7323" y1="4523.3386" y2="4523.3386"/>
    <line x1="2589.7323" x2="2565.5433" y1="4523.3386" y2="4523.3386"/>
    <line x1="2565.5433" x2="2565.5433" y1="4523.3386" y2="4547.5276"/>
    <line x1="2565.5433" x2="2541.3543" y1="4547.5276" y2="4547.5276"/>
    <line x1="2686.4882" x2="2686.4882" y1="4626.1417" y2="4608.0"/>
    <line x1="2686.4882" x2="2656.252" y1="4608.0" y2="4608.0"/>
    <line x1="2656.252" x2="2638.1102" y1="4608.0" y2="4608.0"/>
    <line x1="2638.1102" x2="2644.1575" y1="4608.0" y2="4595.9055"/>
    <line x1="2644.1575" x2="2656.252" y1="4595.9055" y2="4571.7165"/>
    <line x1="2656.252" x2="2656.252" y1="4571.7165" y2="4553.5748"/>
    <line x1="2656.252" x2="2632.063" y1="4553.5748" y2="4553.5748"/>
    <line x1="2632.063" x2="2601.8268" y1="4553.5748" y2="4553.5748"/>
    <line x1="2601.8268" x2="2601.8268" y1="4553.5748" y2="4577.7638"/>
    <line x1="2601.8268" x2="2571.5906" y1="4577.7638" y2="4577.7638"/>
    <line x1="2680.4409" x2="2680.4409" y1="4626.1417" y2="4614.0472"/>
    <line x1="2680.4409" x2="2662.2992" y1="4614.0472" y2="4614.0472"/>
    <line x1="2662.2992" x2="2650.2047" y1="4614.0472" y2="4614.0472"/>
    <line x1="2650.2047" x2="2662.2992" y1="4614.0472" y2="4608.0"/>
    <line x1="2662.2992" x2="2686.4882" y1="4608.0" y2="4595.9055"/>
    <line x1="2686.4882" x2="2686.4882" y1="4595.9055" y2="4583.811"/>
    <line x1="2686.4882" x2="2674.3937" y1="4583.811" y2="4583.811"/>
    <line x1="2674.3937" x2="2638.1102" y1="4583.811" y2="4583.811"/>
    <line x1="2638.1102" x2="2638.1102" y1="4583.811" y2="4608.0"/>
    <line x1="2638.1102" x2="2601.8268" y1="4608.0" y2="4608.0"/>
  </g>
</svg>
