<?xml version="1.0" encoding="utf-8" ?>
<svg xmlns="http://www.w3.org/2000/svg" xmlns:cc="http://creativecommons.org/ns" xmlns:dc="http://purl.org/dc/elements/1.1/" xmlns:ev="http://www.w3.org/2001/xml-events" xmlns:inkscape="http://www.inkscape.org/namespaces/inkscape" xmlns:rdf="http://www.w3.org/1999/02/22-rdf-syntax-ns" xmlns:sodipodi="http://sodipodi.sourceforge.net/DTD/sodipodi-0.dtd" xmlns:xlink="http://www.w3.org/1999/xlink" baseProfile="tiny" height="175.9cm" version="1.2" viewBox="0 0 2830.8661417322837 6648.188976377954" width="74.9cm">
  <metadata>
    <rdf:RDF>
      <cc:Work>
        <dc:format>image/svg+xml</dc:format>
        <dc:source>vsk save -s 470307967 -c /home/kaos/Documents/kaotec/livecodeVplot/vsk/kaos/config/kata220.json /home/kaos/Documents/kaotec/livecodeVplot/vsk/kaos/sketch_kaos.py</dc:source>
        <dc:date>2025-06-08T16:40:02.699222</dc:date>
      </cc:Work>
    </rdf:RDF>
  </metadata>
  <defs/>
  <g fill="none" id="layer1" inkscape:groupmode="layer" inkscape:label="1" stroke="#0000ff" stroke-width="1.1339" style="display:inline">
    <line x1="1821.1219" x2="1797.7994" y1="523.3032" y2="495.5085"/>
    <line x1="1797.7994" x2="1780.3074" y1="495.5085" y2="474.6624"/>
    <line x1="1780.3074" x2="1801.1535" y1="474.6624" y2="457.1705"/>
    <line x1="1801.1535" x2="1777.8309" y1="457.1705" y2="429.3757"/>
    <line x1="1777.8309" x2="1760.339" y1="429.3757" y2="408.5297"/>
    <line x1="1760.339" x2="2066.0812" y1="408.5297" y2="151.9815"/>
    <line x1="2066.0812" x2="2086.9273" y1="151.9815" y2="134.4896"/>
    <line x1="2086.9273" x2="2063.6047" y1="134.4896" y2="106.6948"/>
    <line x1="2063.6047" x2="2046.1128" y1="106.6948" y2="85.8488"/>
    <line x1="2046.1128" x2="2073.9075" y1="85.8488" y2="62.5262"/>
    <line x1="1828.0706" x2="1810.5787" y1="517.4726" y2="496.6265"/>
    <line x1="1810.5787" x2="1798.9174" y1="496.6265" y2="482.7291"/>
    <line x1="1798.9174" x2="1812.8148" y1="482.7291" y2="471.0679"/>
    <line x1="1812.8148" x2="1788.3742" y1="471.0679" y2="456.0524"/>
    <line x1="1788.3742" x2="1776.7129" y1="456.0524" y2="442.1551"/>
    <line x1="1776.7129" x2="2068.5577" y1="442.1551" y2="197.2682"/>
    <line x1="2068.5577" x2="2082.4551" y1="197.2682" y2="185.6069"/>
    <line x1="2082.4551" x2="2058.0145" y1="185.6069" y2="170.5915"/>
    <line x1="2058.0145" x2="2046.3532" y1="170.5915" y2="156.6941"/>
    <line x1="2046.3532" x2="2081.0966" y1="156.6941" y2="127.5409"/>
    <line x1="1835.0193" x2="1823.358" y1="511.6419" y2="497.7446"/>
    <line x1="1823.358" x2="1817.5274" y1="497.7446" y2="490.7959"/>
    <line x1="1817.5274" x2="1824.4761" y1="490.7959" y2="484.9652"/>
    <line x1="1824.4761" x2="1798.9174" y1="484.9652" y2="482.7291"/>
    <line x1="1798.9174" x2="1793.0868" y1="482.7291" y2="475.7805"/>
    <line x1="1793.0868" x2="2071.0342" y1="475.7805" y2="242.5548"/>
    <line x1="2071.0342" x2="2077.9829" y1="242.5548" y2="236.7242"/>
    <line x1="2077.9829" x2="2052.4243" y1="236.7242" y2="234.4881"/>
    <line x1="2052.4243" x2="2046.5936" y1="234.4881" y2="227.5394"/>
    <line x1="2046.5936" x2="2088.2857" y1="227.5394" y2="192.5556"/>
    <line x1="1841.968" x2="1836.1373" y1="505.8113" y2="498.8626"/>
    <line x1="1836.1373" x2="1836.1373" y1="498.8626" y2="498.8626"/>
    <line x1="1836.1373" x2="1836.1373" y1="498.8626" y2="498.8626"/>
    <line x1="1836.1373" x2="1809.4606" y1="498.8626" y2="509.4058"/>
    <line x1="1809.4606" x2="1809.4606" y1="509.4058" y2="509.4058"/>
    <line x1="1809.4606" x2="2073.5107" y1="509.4058" y2="287.8415"/>
    <line x1="2073.5107" x2="2073.5107" y1="287.8415" y2="287.8415"/>
    <line x1="2073.5107" x2="2046.834" y1="287.8415" y2="298.3847"/>
    <line x1="2046.834" x2="2046.834" y1="298.3847" y2="298.3847"/>
    <line x1="2046.834" x2="2095.4748" y1="298.3847" y2="257.5703"/>
    <line x1="1848.9167" x2="1848.9167" y1="499.9807" y2="499.9807"/>
    <line x1="1848.9167" x2="1854.7473" y1="499.9807" y2="506.9293"/>
    <line x1="1854.7473" x2="1847.7986" y1="506.9293" y2="512.76"/>
    <line x1="1847.7986" x2="1820.0039" y1="512.76" y2="536.0825"/>
    <line x1="1820.0039" x2="1825.8345" y1="536.0825" y2="543.0312"/>
    <line x1="1825.8345" x2="2075.9872" y1="543.0312" y2="333.1282"/>
    <line x1="2075.9872" x2="2069.0385" y1="333.1282" y2="338.9588"/>
    <line x1="2069.0385" x2="2041.2438" y1="338.9588" y2="362.2814"/>
    <line x1="2041.2438" x2="2047.0744" y1="362.2814" y2="369.2301"/>
    <line x1="2047.0744" x2="2102.6639" y1="369.2301" y2="322.5849"/>
    <line x1="1855.8653" x2="1861.696" y1="494.15" y2="501.0987"/>
    <line x1="1861.696" x2="1873.3573" y1="501.0987" y2="514.9961"/>
    <line x1="1873.3573" x2="1859.4599" y1="514.9961" y2="526.6574"/>
    <line x1="1859.4599" x2="1830.5471" y1="526.6574" y2="562.7592"/>
    <line x1="1830.5471" x2="1842.2084" y1="562.7592" y2="576.6566"/>
    <line x1="1842.2084" x2="2078.4637" y1="576.6566" y2="378.4148"/>
    <line x1="2078.4637" x2="2064.5664" y1="378.4148" y2="390.0761"/>
    <line x1="2064.5664" x2="2035.6536" y1="390.0761" y2="426.178"/>
    <line x1="2035.6536" x2="2047.3148" y1="426.178" y2="440.0754"/>
    <line x1="2047.3148" x2="2109.853" y1="440.0754" y2="387.5996"/>
    <line x1="1862.814" x2="1874.4753" y1="488.3194" y2="502.2167"/>
    <line x1="1874.4753" x2="1891.9672" y1="502.2167" y2="523.0628"/>
    <line x1="1891.9672" x2="1871.1212" y1="523.0628" y2="540.5547"/>
    <line x1="1871.1212" x2="1841.0903" y1="540.5547" y2="589.4359"/>
    <line x1="1841.0903" x2="1858.5823" y1="589.4359" y2="610.282"/>
    <line x1="1858.5823" x2="2080.9402" y1="610.282" y2="423.7015"/>
    <line x1="2080.9402" x2="2060.0942" y1="423.7015" y2="441.1934"/>
    <line x1="2060.0942" x2="2030.0633" y1="441.1934" y2="490.0746"/>
    <line x1="2030.0633" x2="2047.5553" y1="490.0746" y2="510.9207"/>
    <line x1="2047.5553" x2="2117.0421" y1="510.9207" y2="452.6143"/>
    <line x1="1869.7627" x2="1887.2546" y1="482.4887" y2="503.3348"/>
    <line x1="1887.2546" x2="1910.5772" y1="503.3348" y2="531.1295"/>
    <line x1="1910.5772" x2="1882.7825" y1="531.1295" y2="554.4521"/>
    <line x1="1882.7825" x2="1851.6336" y1="554.4521" y2="616.1126"/>
    <line x1="1851.6336" x2="1874.9561" y1="616.1126" y2="643.9074"/>
    <line x1="1874.9561" x2="2083.4167" y1="643.9074" y2="468.9882"/>
    <line x1="2083.4167" x2="2055.622" y1="468.9882" y2="492.3107"/>
    <line x1="2055.622" x2="2024.4731" y1="492.3107" y2="553.9713"/>
    <line x1="2024.4731" x2="2047.7957" y1="553.9713" y2="581.766"/>
    <line x1="2047.7957" x2="2124.2312" y1="581.766" y2="517.629"/>
    <line x1="1876.7114" x2="1900.034" y1="476.6581" y2="504.4528"/>
    <line x1="1900.034" x2="1929.1872" y1="504.4528" y2="539.1963"/>
    <line x1="1929.1872" x2="1894.4437" y1="539.1963" y2="568.3495"/>
    <line x1="1894.4437" x2="1862.1768" y1="568.3495" y2="642.7893"/>
    <line x1="1862.1768" x2="1891.33" y1="642.7893" y2="677.5328"/>
    <line x1="1891.33" x2="2085.8932" y1="677.5328" y2="514.2748"/>
    <line x1="2085.8932" x2="2051.1498" y1="514.2748" y2="543.4281"/>
    <line x1="2051.1498" x2="2018.8829" y1="543.4281" y2="617.8679"/>
    <line x1="2018.8829" x2="2048.0361" y1="617.8679" y2="652.6114"/>
    <line x1="2048.0361" x2="2131.4203" y1="652.6114" y2="582.6437"/>
    <line x1="1883.6601" x2="1912.8133" y1="470.8275" y2="505.5709"/>
    <line x1="1912.8133" x2="1947.7971" y1="505.5709" y2="547.263"/>
    <line x1="1947.7971" x2="1906.105" y1="547.263" y2="582.2468"/>
    <line x1="1906.105" x2="1872.72" y1="582.2468" y2="669.466"/>
    <line x1="1872.72" x2="1907.7039" y1="669.466" y2="711.1582"/>
    <line x1="1907.7039" x2="2088.3697" y1="711.1582" y2="559.5615"/>
    <line x1="2088.3697" x2="2046.6776" y1="559.5615" y2="594.5454"/>
    <line x1="2046.6776" x2="2013.2926" y1="594.5454" y2="681.7646"/>
    <line x1="2013.2926" x2="2048.2765" y1="681.7646" y2="723.4567"/>
    <line x1="2048.2765" x2="2138.6094" y1="723.4567" y2="647.6583"/>
    <line x1="1890.6088" x2="1925.5926" y1="464.9968" y2="506.6889"/>
    <line x1="1925.5926" x2="1966.4071" y1="506.6889" y2="555.3297"/>
    <line x1="1966.4071" x2="1917.7663" y1="555.3297" y2="596.1442"/>
    <line x1="1917.7663" x2="1883.2633" y1="596.1442" y2="696.1427"/>
    <line x1="1883.2633" x2="1924.0778" y1="696.1427" y2="744.7836"/>
    <line x1="1924.0778" x2="2090.8462" y1="744.7836" y2="604.8482"/>
    <line x1="2090.8462" x2="2042.2054" y1="604.8482" y2="645.6627"/>
    <line x1="2042.2054" x2="2007.7024" y1="645.6627" y2="745.6612"/>
    <line x1="2007.7024" x2="2048.5169" y1="745.6612" y2="794.302"/>
    <line x1="2048.5169" x2="2145.7985" y1="794.302" y2="712.673"/>
    <line x1="1897.5575" x2="1938.372" y1="459.1662" y2="507.807"/>
    <line x1="1938.372" x2="1985.0171" y1="507.807" y2="563.3965"/>
    <line x1="1985.0171" x2="1929.4276" y1="563.3965" y2="610.0416"/>
    <line x1="1929.4276" x2="1893.8065" y1="610.0416" y2="722.8194"/>
    <line x1="1893.8065" x2="1940.4516" y1="722.8194" y2="778.4089"/>
    <line x1="1940.4516" x2="2093.3227" y1="778.4089" y2="650.1349"/>
    <line x1="2093.3227" x2="2037.7332" y1="650.1349" y2="696.78"/>
    <line x1="2037.7332" x2="2002.1122" y1="696.78" y2="809.5578"/>
    <line x1="2002.1122" x2="2048.7573" y1="809.5578" y2="865.1473"/>
    <line x1="2048.7573" x2="2152.9876" y1="865.1473" y2="777.6877"/>
    <line x1="1904.5062" x2="1951.1513" y1="453.3355" y2="508.925"/>
    <line x1="1951.1513" x2="2003.627" y1="508.925" y2="571.4632"/>
    <line x1="2003.627" x2="1941.0889" y1="571.4632" y2="623.939"/>
    <line x1="1941.0889" x2="1904.3497" y1="623.939" y2="749.4961"/>
    <line x1="1904.3497" x2="1956.8255" y1="749.4961" y2="812.0343"/>
    <line x1="1956.8255" x2="2095.7992" y1="812.0343" y2="695.4215"/>
    <line x1="2095.7992" x2="2033.2611" y1="695.4215" y2="747.8973"/>
    <line x1="2033.2611" x2="1996.5219" y1="747.8973" y2="873.4545"/>
    <line x1="1996.5219" x2="2048.9977" y1="873.4545" y2="935.9926"/>
    <line x1="2048.9977" x2="2160.1767" y1="935.9926" y2="842.7024"/>
    <line x1="1911.4548" x2="1963.9306" y1="447.5049" y2="510.0431"/>
    <line x1="1963.9306" x2="2022.237" y1="510.0431" y2="579.5299"/>
    <line x1="2022.237" x2="1952.7501" y1="579.5299" y2="637.8363"/>
    <line x1="1952.7501" x2="1914.893" y1="637.8363" y2="776.1728"/>
    <line x1="1914.893" x2="1973.1994" y1="776.1728" y2="845.6597"/>
    <line x1="1973.1994" x2="2098.2757" y1="845.6597" y2="740.7082"/>
    <line x1="2098.2757" x2="2028.7889" y1="740.7082" y2="799.0146"/>
    <line x1="2028.7889" x2="1990.9317" y1="799.0146" y2="937.3511"/>
    <line x1="1990.9317" x2="2049.2381" y1="937.3511" y2="1006.838"/>
    <line x1="2049.2381" x2="2167.3658" y1="1006.838" y2="907.7171"/>
    <line x1="1918.4035" x2="1976.7099" y1="441.6743" y2="511.1611"/>
    <line x1="1976.7099" x2="2040.847" y1="511.1611" y2="587.5967"/>
    <line x1="2040.847" x2="1964.4114" y1="587.5967" y2="651.7337"/>
    <line x1="1964.4114" x2="1925.4362" y1="651.7337" y2="802.8495"/>
    <line x1="1925.4362" x2="1989.5733" y1="802.8495" y2="879.2851"/>
    <line x1="1989.5733" x2="2100.7522" y1="879.2851" y2="785.9949"/>
    <line x1="2100.7522" x2="2024.3167" y1="785.9949" y2="850.1319"/>
    <line x1="2024.3167" x2="1985.3415" y1="850.1319" y2="1001.2477"/>
    <line x1="1985.3415" x2="2049.4785" y1="1001.2477" y2="1077.6833"/>
    <line x1="2049.4785" x2="2174.5549" y1="1077.6833" y2="972.7318"/>
    <line x1="1925.3522" x2="1989.4893" y1="435.8436" y2="512.2792"/>
    <line x1="1989.4893" x2="2059.4569" y1="512.2792" y2="595.6634"/>
    <line x1="2059.4569" x2="1976.0727" y1="595.6634" y2="665.6311"/>
    <line x1="1976.0727" x2="1935.9794" y1="665.6311" y2="829.5262"/>
    <line x1="1935.9794" x2="2005.9471" y1="829.5262" y2="912.9105"/>
    <line x1="2005.9471" x2="2103.2287" y1="912.9105" y2="831.2815"/>
    <line x1="2103.2287" x2="2019.8445" y1="831.2815" y2="901.2492"/>
    <line x1="2019.8445" x2="1979.7513" y1="901.2492" y2="1065.1444"/>
    <line x1="1979.7513" x2="2049.7189" y1="1065.1444" y2="1148.5286"/>
    <line x1="2049.7189" x2="2181.744" y1="1148.5286" y2="1037.7464"/>
    <line x1="1932.3009" x2="2002.2686" y1="430.013" y2="513.3972"/>
    <line x1="2002.2686" x2="2078.0669" y1="513.3972" y2="603.7301"/>
    <line x1="2078.0669" x2="1987.734" y1="603.7301" y2="679.5285"/>
    <line x1="1987.734" x2="1946.5227" y1="679.5285" y2="856.2029"/>
    <line x1="1946.5227" x2="2022.321" y1="856.2029" y2="946.5359"/>
    <line x1="2022.321" x2="2105.7052" y1="946.5359" y2="876.5682"/>
    <line x1="2105.7052" x2="2015.3723" y1="876.5682" y2="952.3665"/>
    <line x1="2015.3723" x2="1974.161" y1="952.3665" y2="1129.041"/>
    <line x1="1974.161" x2="2049.9593" y1="1129.041" y2="1219.3739"/>
    <line x1="2049.9593" x2="2188.9331" y1="1219.3739" y2="1102.7611"/>
    <line x1="1939.2496" x2="2015.0479" y1="424.1823" y2="514.5153"/>
    <line x1="2015.0479" x2="2096.6769" y1="514.5153" y2="611.7969"/>
    <line x1="2096.6769" x2="1999.3953" y1="611.7969" y2="693.4258"/>
    <line x1="1999.3953" x2="1957.0659" y1="693.4258" y2="882.8796"/>
    <line x1="1957.0659" x2="2038.6949" y1="882.8796" y2="980.1613"/>
    <line x1="2038.6949" x2="2108.1817" y1="980.1613" y2="921.8549"/>
    <line x1="2108.1817" x2="2010.9001" y1="921.8549" y2="1003.4838"/>
    <line x1="2010.9001" x2="1968.5708" y1="1003.4838" y2="1192.9376"/>
    <line x1="1968.5708" x2="2050.1998" y1="1192.9376" y2="1290.2192"/>
    <line x1="2050.1998" x2="2196.1222" y1="1290.2192" y2="1167.7758"/>
    <line x1="1946.1983" x2="2027.8272" y1="418.3517" y2="515.6333"/>
    <line x1="2027.8272" x2="2115.2868" y1="515.6333" y2="619.8636"/>
    <line x1="2115.2868" x2="2011.0565" y1="619.8636" y2="707.3232"/>
    <line x1="2011.0565" x2="1967.6092" y1="707.3232" y2="909.5563"/>
    <line x1="1967.6092" x2="2055.0688" y1="909.5563" y2="1013.7866"/>
    <line x1="2055.0688" x2="2110.6582" y1="1013.7866" y2="967.1415"/>
    <line x1="2110.6582" x2="2006.428" y1="967.1415" y2="1054.6011"/>
    <line x1="2006.428" x2="1962.9806" y1="1054.6011" y2="1256.8343"/>
    <line x1="1962.9806" x2="2050.4402" y1="1256.8343" y2="1361.0646"/>
    <line x1="2050.4402" x2="2203.3113" y1="1361.0646" y2="1232.7905"/>
    <line x1="1953.147" x2="2040.6066" y1="412.5211" y2="516.7513"/>
    <line x1="2040.6066" x2="2133.8968" y1="516.7513" y2="627.9303"/>
    <line x1="2133.8968" x2="2022.7178" y1="627.9303" y2="721.2206"/>
    <line x1="2022.7178" x2="1978.1524" y1="721.2206" y2="936.233"/>
    <line x1="1978.1524" x2="2071.4426" y1="936.233" y2="1047.412"/>
    <line x1="2071.4426" x2="2113.1348" y1="1047.412" y2="1012.4282"/>
    <line x1="2113.1348" x2="2001.9558" y1="1012.4282" y2="1105.7184"/>
    <line x1="2001.9558" x2="1957.3903" y1="1105.7184" y2="1320.7309"/>
    <line x1="1957.3903" x2="2050.6806" y1="1320.7309" y2="1431.9099"/>
    <line x1="2050.6806" x2="2210.5004" y1="1431.9099" y2="1297.8052"/>
    <line x1="1960.0956" x2="2053.3859" y1="406.6904" y2="517.8694"/>
    <line x1="2053.3859" x2="2152.5068" y1="517.8694" y2="635.9971"/>
    <line x1="2152.5068" x2="2034.3791" y1="635.9971" y2="735.118"/>
    <line x1="2034.3791" x2="1988.6956" y1="735.118" y2="962.9097"/>
    <line x1="1988.6956" x2="2087.8165" y1="962.9097" y2="1081.0374"/>
    <line x1="2087.8165" x2="2115.6113" y1="1081.0374" y2="1057.7149"/>
    <line x1="2115.6113" x2="1997.4836" y1="1057.7149" y2="1156.8357"/>
    <line x1="1997.4836" x2="1951.8001" y1="1156.8357" y2="1384.6275"/>
    <line x1="1951.8001" x2="2050.921" y1="1384.6275" y2="1502.7552"/>
    <line x1="2050.921" x2="2217.6895" y1="1502.7552" y2="1362.8198"/>
    <line x1="1967.0443" x2="2066.1652" y1="400.8598" y2="518.9874"/>
    <line x1="2066.1652" x2="2171.1167" y1="518.9874" y2="644.0638"/>
    <line x1="2171.1167" x2="2046.0404" y1="644.0638" y2="749.0153"/>
    <line x1="2046.0404" x2="1999.2389" y1="749.0153" y2="989.5864"/>
    <line x1="1999.2389" x2="2104.1904" y1="989.5864" y2="1114.6628"/>
    <line x1="2104.1904" x2="2118.0878" y1="1114.6628" y2="1103.0015"/>
    <line x1="2118.0878" x2="1993.0114" y1="1103.0015" y2="1207.9531"/>
    <line x1="1993.0114" x2="1946.2099" y1="1207.9531" y2="1448.5242"/>
    <line x1="1946.2099" x2="2051.1614" y1="1448.5242" y2="1573.6005"/>
    <line x1="2051.1614" x2="2224.8786" y1="1573.6005" y2="1427.8345"/>
    <line x1="1973.993" x2="2078.9445" y1="395.0291" y2="520.1055"/>
    <line x1="2078.9445" x2="2189.7267" y1="520.1055" y2="652.1305"/>
    <line x1="2189.7267" x2="2057.7017" y1="652.1305" y2="762.9127"/>
    <line x1="2057.7017" x2="2009.7821" y1="762.9127" y2="1016.2631"/>
    <line x1="2009.7821" x2="2120.5643" y1="1016.2631" y2="1148.2882"/>
    <line x1="2120.5643" x2="2120.5643" y1="1148.2882" y2="1148.2882"/>
    <line x1="2120.5643" x2="1988.5392" y1="1148.2882" y2="1259.0704"/>
    <line x1="1988.5392" x2="1940.6196" y1="1259.0704" y2="1512.4208"/>
    <line x1="1940.6196" x2="2051.4018" y1="1512.4208" y2="1644.4459"/>
    <line x1="2051.4018" x2="2232.0677" y1="1644.4459" y2="1492.8492"/>
    <line x1="1980.9417" x2="2091.7239" y1="389.1985" y2="521.2235"/>
    <line x1="2091.7239" x2="2208.3367" y1="521.2235" y2="660.1973"/>
    <line x1="2208.3367" x2="2069.3629" y1="660.1973" y2="776.8101"/>
    <line x1="2069.3629" x2="2020.3253" y1="776.8101" y2="1042.9398"/>
    <line x1="2020.3253" x2="2136.9381" y1="1042.9398" y2="1181.9136"/>
    <line x1="2136.9381" x2="2123.0408" y1="1181.9136" y2="1193.5749"/>
    <line x1="2123.0408" x2="1984.067" y1="1193.5749" y2="1310.1877"/>
    <line x1="1984.067" x2="1935.0294" y1="1310.1877" y2="1576.3174"/>
    <line x1="1935.0294" x2="2051.6422" y1="1576.3174" y2="1715.2912"/>
    <line x1="2051.6422" x2="2239.2567" y1="1715.2912" y2="1557.8639"/>
    <line x1="1987.8904" x2="2104.5032" y1="383.3678" y2="522.3416"/>
    <line x1="2104.5032" x2="2226.9466" y1="522.3416" y2="668.264"/>
    <line x1="2226.9466" x2="2081.0242" y1="668.264" y2="790.7074"/>
    <line x1="2081.0242" x2="2030.8686" y1="790.7074" y2="1069.6165"/>
    <line x1="2030.8686" x2="2153.312" y1="1069.6165" y2="1215.539"/>
    <line x1="2153.312" x2="2125.5173" y1="1215.539" y2="1238.8615"/>
    <line x1="2125.5173" x2="1979.5948" y1="1238.8615" y2="1361.305"/>
    <line x1="1979.5948" x2="1929.4392" y1="1361.305" y2="1640.2141"/>
    <line x1="1929.4392" x2="2051.8826" y1="1640.2141" y2="1786.1365"/>
    <line x1="2051.8826" x2="2246.4458" y1="1786.1365" y2="1622.8786"/>
    <line x1="1994.8391" x2="2117.2825" y1="377.5372" y2="523.4596"/>
    <line x1="2117.2825" x2="2245.5566" y1="523.4596" y2="676.3307"/>
    <line x1="2245.5566" x2="2092.6855" y1="676.3307" y2="804.6048"/>
    <line x1="2092.6855" x2="2041.4118" y1="804.6048" y2="1096.2932"/>
    <line x1="2041.4118" x2="2169.6859" y1="1096.2932" y2="1249.1644"/>
    <line x1="2169.6859" x2="2127.9938" y1="1249.1644" y2="1284.1482"/>
    <line x1="2127.9938" x2="1975.1227" y1="1284.1482" y2="1412.4223"/>
    <line x1="1975.1227" x2="1923.8489" y1="1412.4223" y2="1704.1107"/>
    <line x1="1923.8489" x2="2052.123" y1="1704.1107" y2="1856.9818"/>
    <line x1="2052.123" x2="2253.6349" y1="1856.9818" y2="1687.8932"/>
    <line x1="2001.7878" x2="2130.0619" y1="371.7066" y2="524.5777"/>
    <line x1="2130.0619" x2="2264.1666" y1="524.5777" y2="684.3975"/>
    <line x1="2264.1666" x2="2104.3468" y1="684.3975" y2="818.5022"/>
    <line x1="2104.3468" x2="2051.955" y1="818.5022" y2="1122.9699"/>
    <line x1="2051.955" x2="2186.0598" y1="1122.9699" y2="1282.7897"/>
    <line x1="2186.0598" x2="2130.4703" y1="1282.7897" y2="1329.4349"/>
    <line x1="2130.4703" x2="1970.6505" y1="1329.4349" y2="1463.5396"/>
    <line x1="1970.6505" x2="1918.2587" y1="1463.5396" y2="1768.0073"/>
    <line x1="1918.2587" x2="2052.3634" y1="1768.0073" y2="1927.8271"/>
    <line x1="2052.3634" x2="2260.824" y1="1927.8271" y2="1752.9079"/>
    <line x1="2008.7365" x2="2142.8412" y1="365.8759" y2="525.6957"/>
    <line x1="2142.8412" x2="2282.7766" y1="525.6957" y2="692.4642"/>
    <line x1="2282.7766" x2="2116.0081" y1="692.4642" y2="832.3996"/>
    <line x1="2116.0081" x2="2062.4983" y1="832.3996" y2="1149.6466"/>
    <line x1="2062.4983" x2="2202.4336" y1="1149.6466" y2="1316.4151"/>
    <line x1="2202.4336" x2="2132.9468" y1="1316.4151" y2="1374.7215"/>
    <line x1="2132.9468" x2="1966.1783" y1="1374.7215" y2="1514.6569"/>
    <line x1="1966.1783" x2="1912.6685" y1="1514.6569" y2="1831.904"/>
    <line x1="1912.6685" x2="2052.6038" y1="1831.904" y2="1998.6725"/>
    <line x1="2052.6038" x2="2268.0131" y1="1998.6725" y2="1817.9226"/>
    <line x1="2015.6851" x2="2155.6205" y1="360.0453" y2="526.8138"/>
    <line x1="2155.6205" x2="2301.3865" y1="526.8138" y2="700.5309"/>
    <line x1="2301.3865" x2="2127.6694" y1="700.5309" y2="846.2969"/>
    <line x1="2127.6694" x2="2073.0415" y1="846.2969" y2="1176.3233"/>
    <line x1="2073.0415" x2="2218.8075" y1="1176.3233" y2="1350.0405"/>
    <line x1="2218.8075" x2="2135.4233" y1="1350.0405" y2="1420.0082"/>
    <line x1="2135.4233" x2="1961.7061" y1="1420.0082" y2="1565.7742"/>
    <line x1="1961.7061" x2="1907.0782" y1="1565.7742" y2="1895.8006"/>
    <line x1="1907.0782" x2="2052.8443" y1="1895.8006" y2="2069.5178"/>
    <line x1="2052.8443" x2="2275.2022" y1="2069.5178" y2="1882.9373"/>
    <line x1="2022.6338" x2="2168.3998" y1="354.2146" y2="527.9318"/>
    <line x1="2168.3998" x2="2319.9965" y1="527.9318" y2="708.5977"/>
    <line x1="2319.9965" x2="2139.3306" y1="708.5977" y2="860.1943"/>
    <line x1="2139.3306" x2="2083.5847" y1="860.1943" y2="1203.0"/>
    <line x1="2083.5847" x2="2235.1814" y1="1203.0" y2="1383.6659"/>
    <line x1="2235.1814" x2="2137.8998" y1="1383.6659" y2="1465.2949"/>
    <line x1="2137.8998" x2="1957.2339" y1="1465.2949" y2="1616.8915"/>
    <line x1="1957.2339" x2="1901.488" y1="1616.8915" y2="1959.6973"/>
    <line x1="1901.488" x2="2053.0847" y1="1959.6973" y2="2140.3631"/>
    <line x1="2053.0847" x2="2282.3913" y1="2140.3631" y2="1947.952"/>
    <line x1="2029.5825" x2="2181.1792" y1="348.384" y2="529.0499"/>
    <line x1="2181.1792" x2="2338.6065" y1="529.0499" y2="716.6644"/>
    <line x1="2338.6065" x2="2150.9919" y1="716.6644" y2="874.0917"/>
    <line x1="2150.9919" x2="2094.128" y1="874.0917" y2="1229.6767"/>
    <line x1="2094.128" x2="2251.5553" y1="1229.6767" y2="1417.2913"/>
    <line x1="2251.5553" x2="2140.3763" y1="1417.2913" y2="1510.5815"/>
    <line x1="2140.3763" x2="1952.7617" y1="1510.5815" y2="1668.0088"/>
    <line x1="1952.7617" x2="1895.8978" y1="1668.0088" y2="2023.5939"/>
    <line x1="1895.8978" x2="2053.3251" y1="2023.5939" y2="2211.2084"/>
    <line x1="2053.3251" x2="2289.5804" y1="2211.2084" y2="2012.9667"/>
    <line x1="2036.5312" x2="2193.9585" y1="342.5534" y2="530.1679"/>
    <line x1="2193.9585" x2="2357.2164" y1="530.1679" y2="724.7311"/>
    <line x1="2357.2164" x2="2162.6532" y1="724.7311" y2="887.9891"/>
    <line x1="2162.6532" x2="2104.6712" y1="887.9891" y2="1256.3534"/>
    <line x1="2104.6712" x2="2267.9291" y1="1256.3534" y2="1450.9167"/>
    <line x1="2267.9291" x2="2142.8528" y1="1450.9167" y2="1555.8682"/>
    <line x1="2142.8528" x2="1948.2895" y1="1555.8682" y2="1719.1261"/>
    <line x1="1948.2895" x2="1890.3076" y1="1719.1261" y2="2087.4905"/>
    <line x1="1890.3076" x2="2053.5655" y1="2087.4905" y2="2282.0537"/>
    <line x1="2053.5655" x2="2296.7695" y1="2282.0537" y2="2077.9813"/>
    <line x1="2043.4799" x2="2206.7378" y1="336.7227" y2="531.286"/>
    <line x1="2206.7378" x2="2375.8264" y1="531.286" y2="732.7979"/>
    <line x1="2375.8264" x2="2174.3145" y1="732.7979" y2="901.8864"/>
    <line x1="2174.3145" x2="2115.2144" y1="901.8864" y2="1283.0301"/>
    <line x1="2115.2144" x2="2284.303" y1="1283.0301" y2="1484.5421"/>
    <line x1="2284.303" x2="2145.3293" y1="1484.5421" y2="1601.1549"/>
    <line x1="2145.3293" x2="1943.8174" y1="1601.1549" y2="1770.2434"/>
    <line x1="1943.8174" x2="1884.7173" y1="1770.2434" y2="2151.3872"/>
    <line x1="1884.7173" x2="2053.8059" y1="2151.3872" y2="2352.8991"/>
    <line x1="2053.8059" x2="2303.9586" y1="2352.8991" y2="2142.996"/>
    <line x1="2050.4286" x2="2219.5171" y1="330.8921" y2="532.404"/>
    <line x1="2219.5171" x2="2394.4364" y1="532.404" y2="740.8646"/>
    <line x1="2394.4364" x2="2185.9758" y1="740.8646" y2="915.7838"/>
    <line x1="2185.9758" x2="2125.7577" y1="915.7838" y2="1309.7068"/>
    <line x1="2125.7577" x2="2300.6769" y1="1309.7068" y2="1518.1674"/>
    <line x1="2300.6769" x2="2147.8058" y1="1518.1674" y2="1646.4415"/>
    <line x1="2147.8058" x2="1939.3452" y1="1646.4415" y2="1821.3607"/>
    <line x1="1939.3452" x2="1879.1271" y1="1821.3607" y2="2215.2838"/>
    <line x1="1879.1271" x2="2054.0463" y1="2215.2838" y2="2423.7444"/>
    <line x1="2054.0463" x2="2311.1477" y1="2423.7444" y2="2208.0107"/>
    <line x1="2057.3773" x2="2232.2965" y1="325.0614" y2="533.522"/>
    <line x1="2232.2965" x2="2413.0463" y1="533.522" y2="748.9313"/>
    <line x1="2413.0463" x2="2197.637" y1="748.9313" y2="929.6812"/>
    <line x1="2197.637" x2="2136.3009" y1="929.6812" y2="1336.3836"/>
    <line x1="2136.3009" x2="2317.0508" y1="1336.3836" y2="1551.7928"/>
    <line x1="2317.0508" x2="2150.2823" y1="1551.7928" y2="1691.7282"/>
    <line x1="2150.2823" x2="1934.873" y1="1691.7282" y2="1872.4781"/>
    <line x1="1934.873" x2="1873.5369" y1="1872.4781" y2="2279.1804"/>
    <line x1="1873.5369" x2="2054.2867" y1="2279.1804" y2="2494.5897"/>
    <line x1="2054.2867" x2="2318.3368" y1="2494.5897" y2="2273.0254"/>
    <line x1="2064.3259" x2="2245.0758" y1="319.2308" y2="534.6401"/>
    <line x1="2245.0758" x2="2431.6563" y1="534.6401" y2="756.9981"/>
    <line x1="2431.6563" x2="2209.2983" y1="756.9981" y2="943.5786"/>
    <line x1="2209.2983" x2="2146.8441" y1="943.5786" y2="1363.0603"/>
    <line x1="2146.8441" x2="2333.4246" y1="1363.0603" y2="1585.4182"/>
    <line x1="2333.4246" x2="2152.7588" y1="1585.4182" y2="1737.0149"/>
    <line x1="2152.7588" x2="1930.4008" y1="1737.0149" y2="1923.5954"/>
    <line x1="1930.4008" x2="1867.9466" y1="1923.5954" y2="2343.0771"/>
    <line x1="1867.9466" x2="2054.5271" y1="2343.0771" y2="2565.435"/>
    <line x1="2054.5271" x2="2325.5259" y1="2565.435" y2="2338.0401"/>
    <line x1="2071.2746" x2="2257.8551" y1="313.4002" y2="535.7581"/>
    <line x1="2257.8551" x2="2450.2663" y1="535.7581" y2="765.0648"/>
    <line x1="2450.2663" x2="2220.9596" y1="765.0648" y2="957.4759"/>
    <line x1="2220.9596" x2="2157.3874" y1="957.4759" y2="1389.737"/>
    <line x1="2157.3874" x2="2349.7985" y1="1389.737" y2="1619.0436"/>
    <line x1="2349.7985" x2="2155.2353" y1="1619.0436" y2="1782.3015"/>
    <line x1="2155.2353" x2="1925.9286" y1="1782.3015" y2="1974.7127"/>
    <line x1="1925.9286" x2="1862.3564" y1="1974.7127" y2="2406.9737"/>
    <line x1="1862.3564" x2="2054.7675" y1="2406.9737" y2="2636.2804"/>
    <line x1="2054.7675" x2="2332.715" y1="2636.2804" y2="2403.0547"/>
    <line x1="2078.2233" x2="2270.6345" y1="307.5695" y2="536.8762"/>
    <line x1="2270.6345" x2="2468.8762" y1="536.8762" y2="773.1315"/>
    <line x1="2468.8762" x2="2232.6209" y1="773.1315" y2="971.3733"/>
    <line x1="2232.6209" x2="2167.9306" y1="971.3733" y2="1416.4137"/>
    <line x1="2167.9306" x2="2366.1724" y1="1416.4137" y2="1652.669"/>
    <line x1="2366.1724" x2="2157.7118" y1="1652.669" y2="1827.5882"/>
    <line x1="2157.7118" x2="1921.4564" y1="1827.5882" y2="2025.83"/>
    <line x1="1921.4564" x2="1856.7662" y1="2025.83" y2="2470.8703"/>
    <line x1="1856.7662" x2="2055.0079" y1="2470.8703" y2="2707.1257"/>
    <line x1="2055.0079" x2="2339.9041" y1="2707.1257" y2="2468.0694"/>
    <line x1="2085.172" x2="2283.4138" y1="301.7389" y2="537.9942"/>
    <line x1="2283.4138" x2="2487.4862" y1="537.9942" y2="781.1983"/>
    <line x1="2487.4862" x2="2244.2822" y1="781.1983" y2="985.2707"/>
    <line x1="2244.2822" x2="2178.4738" y1="985.2707" y2="1443.0904"/>
    <line x1="2178.4738" x2="2382.5463" y1="1443.0904" y2="1686.2944"/>
    <line x1="2382.5463" x2="2160.1883" y1="1686.2944" y2="1872.8749"/>
    <line x1="2160.1883" x2="1916.9843" y1="1872.8749" y2="2076.9473"/>
    <line x1="1916.9843" x2="1851.1759" y1="2076.9473" y2="2534.767"/>
    <line x1="1851.1759" x2="2055.2483" y1="2534.767" y2="2777.971"/>
    <line x1="2055.2483" x2="2347.0932" y1="2777.971" y2="2533.0841"/>
    <line x1="2092.1207" x2="2296.1931" y1="295.9082" y2="539.1123"/>
    <line x1="2296.1931" x2="2506.0962" y1="539.1123" y2="789.265"/>
    <line x1="2506.0962" x2="2255.9434" y1="789.265" y2="999.168"/>
    <line x1="2255.9434" x2="2189.0171" y1="999.168" y2="1469.7671"/>
    <line x1="2189.0171" x2="2398.9201" y1="1469.7671" y2="1719.9198"/>
    <line x1="2398.9201" x2="2162.6648" y1="1719.9198" y2="1918.1615"/>
    <line x1="2162.6648" x2="1912.5121" y1="1918.1615" y2="2128.0646"/>
    <line x1="1912.5121" x2="1845.5857" y1="2128.0646" y2="2598.6636"/>
    <line x1="1845.5857" x2="2055.4888" y1="2598.6636" y2="2848.8163"/>
    <line x1="2055.4888" x2="2354.2823" y1="2848.8163" y2="2598.0988"/>
    <line x1="1821.6449" x2="1819.2822" y1="1413.9128" y2="1400.5132"/>
    <line x1="1819.2822" x2="1939.8785" y1="1400.5132" y2="1379.2488"/>
    <line x1="1939.8785" x2="1953.2781" y1="1379.2488" y2="1376.8861"/>
    <line x1="1953.2781" x2="1955.6408" y1="1376.8861" y2="1390.2857"/>
    <line x1="1955.6408" x2="1952.4905" y1="1390.2857" y2="1372.4196"/>
    <line x1="1952.4905" x2="1950.1278" y1="1372.4196" y2="1359.02"/>
    <line x1="1950.1278" x2="1945.4024" y1="1359.02" y2="1332.2208"/>
    <line x1="1945.4024" x2="1935.9515" y1="1332.2208" y2="1278.6225"/>
    <line x1="1935.9515" x2="1933.5888" y1="1278.6225" y2="1265.2229"/>
    <line x1="1933.5888" x2="1946.9884" y1="1265.2229" y2="1262.8602"/>
    <line x1="1826.1114" x2="1824.5363" y1="1413.1252" y2="1404.1922"/>
    <line x1="1824.5363" x2="1936.1995" y1="1404.1922" y2="1384.5029"/>
    <line x1="1936.1995" x2="1954.0656" y1="1384.5029" y2="1381.3527"/>
    <line x1="1954.0656" x2="1956.4283" y1="1381.3527" y2="1394.7522"/>
    <line x1="1956.4283" x2="1954.0656" y1="1394.7522" y2="1381.3527"/>
    <line x1="1954.0656" x2="1952.4905" y1="1381.3527" y2="1372.4196"/>
    <line x1="1952.4905" x2="1949.3402" y1="1372.4196" y2="1354.5535"/>
    <line x1="1949.3402" x2="1943.0396" y1="1354.5535" y2="1318.8212"/>
    <line x1="1943.0396" x2="1941.4645" y1="1318.8212" y2="1309.8882"/>
    <line x1="1941.4645" x2="1959.3306" y1="1309.8882" y2="1306.7379"/>
    <line x1="1830.5779" x2="1829.7904" y1="1412.3377" y2="1407.8711"/>
    <line x1="1829.7904" x2="1932.5205" y1="1407.8711" y2="1389.757"/>
    <line x1="1932.5205" x2="1954.8532" y1="1389.757" y2="1385.8192"/>
    <line x1="1954.8532" x2="1957.2159" y1="1385.8192" y2="1399.2188"/>
    <line x1="1957.2159" x2="1955.6408" y1="1399.2188" y2="1390.2857"/>
    <line x1="1955.6408" x2="1954.8532" y1="1390.2857" y2="1385.8192"/>
    <line x1="1954.8532" x2="1953.2781" y1="1385.8192" y2="1376.8861"/>
    <line x1="1953.2781" x2="1950.1278" y1="1376.8861" y2="1359.02"/>
    <line x1="1950.1278" x2="1949.3402" y1="1359.02" y2="1354.5535"/>
    <line x1="1949.3402" x2="1971.6729" y1="1354.5535" y2="1350.6156"/>
    <line x1="1835.0445" x2="1835.0445" y1="1411.5501" y2="1411.5501"/>
    <line x1="1835.0445" x2="1928.8416" y1="1411.5501" y2="1395.0111"/>
    <line x1="1928.8416" x2="1955.6408" y1="1395.0111" y2="1390.2857"/>
    <line x1="1955.6408" x2="1958.0035" y1="1390.2857" y2="1403.6853"/>
    <line x1="1958.0035" x2="1957.2159" y1="1403.6853" y2="1399.2188"/>
    <line x1="1957.2159" x2="1957.2159" y1="1399.2188" y2="1399.2188"/>
    <line x1="1957.2159" x2="1957.2159" y1="1399.2188" y2="1399.2188"/>
    <line x1="1957.2159" x2="1957.2159" y1="1399.2188" y2="1399.2188"/>
    <line x1="1957.2159" x2="1957.2159" y1="1399.2188" y2="1399.2188"/>
    <line x1="1957.2159" x2="1984.0151" y1="1399.2188" y2="1394.4934"/>
    <line x1="1839.511" x2="1840.2986" y1="1410.7625" y2="1415.2291"/>
    <line x1="1840.2986" x2="1925.1626" y1="1415.2291" y2="1400.2652"/>
    <line x1="1925.1626" x2="1956.4283" y1="1400.2652" y2="1394.7522"/>
    <line x1="1956.4283" x2="1958.791" y1="1394.7522" y2="1408.1518"/>
    <line x1="1958.791" x2="1958.791" y1="1408.1518" y2="1408.1518"/>
    <line x1="1958.791" x2="1959.5786" y1="1408.1518" y2="1412.6184"/>
    <line x1="1959.5786" x2="1961.1538" y1="1412.6184" y2="1421.5514"/>
    <line x1="1961.1538" x2="1964.304" y1="1421.5514" y2="1439.4175"/>
    <line x1="1964.304" x2="1965.0916" y1="1439.4175" y2="1443.8841"/>
    <line x1="1965.0916" x2="1996.3573" y1="1443.8841" y2="1438.3711"/>
    <line x1="1843.9775" x2="1845.5527" y1="1409.975" y2="1418.908"/>
    <line x1="1845.5527" x2="1921.4837" y1="1418.908" y2="1405.5193"/>
    <line x1="1921.4837" x2="1957.2159" y1="1405.5193" y2="1399.2188"/>
    <line x1="1957.2159" x2="1959.5786" y1="1399.2188" y2="1412.6184"/>
    <line x1="1959.5786" x2="1960.3662" y1="1412.6184" y2="1417.0849"/>
    <line x1="1960.3662" x2="1961.9413" y1="1417.0849" y2="1426.018"/>
    <line x1="1961.9413" x2="1965.0916" y1="1426.018" y2="1443.8841"/>
    <line x1="1965.0916" x2="1971.3922" y1="1443.8841" y2="1479.6163"/>
    <line x1="1971.3922" x2="1972.9673" y1="1479.6163" y2="1488.5494"/>
    <line x1="1972.9673" x2="2008.6995" y1="1488.5494" y2="1482.2488"/>
    <line x1="1848.4441" x2="1850.8068" y1="1409.1874" y2="1422.587"/>
    <line x1="1850.8068" x2="1917.8047" y1="1422.587" y2="1410.7734"/>
    <line x1="1917.8047" x2="1958.0035" y1="1410.7734" y2="1403.6853"/>
    <line x1="1958.0035" x2="1960.3662" y1="1403.6853" y2="1417.0849"/>
    <line x1="1960.3662" x2="1961.9413" y1="1417.0849" y2="1426.018"/>
    <line x1="1961.9413" x2="1964.304" y1="1426.018" y2="1439.4175"/>
    <line x1="1964.304" x2="1969.0294" y1="1439.4175" y2="1466.2167"/>
    <line x1="1969.0294" x2="1978.4803" y1="1466.2167" y2="1519.8151"/>
    <line x1="1978.4803" x2="1980.843" y1="1519.8151" y2="1533.2147"/>
    <line x1="1980.843" x2="2021.0418" y1="1533.2147" y2="1526.1265"/>
    <line x1="1852.9106" x2="1856.0609" y1="1408.3998" y2="1426.2659"/>
    <line x1="1856.0609" x2="1914.1257" y1="1426.2659" y2="1416.0275"/>
    <line x1="1914.1257" x2="1958.791" y1="1416.0275" y2="1408.1518"/>
    <line x1="1958.791" x2="1961.1538" y1="1408.1518" y2="1421.5514"/>
    <line x1="1961.1538" x2="1963.5165" y1="1421.5514" y2="1434.951"/>
    <line x1="1963.5165" x2="1966.6667" y1="1434.951" y2="1452.8171"/>
    <line x1="1966.6667" x2="1972.9673" y1="1452.8171" y2="1488.5494"/>
    <line x1="1972.9673" x2="1985.5684" y1="1488.5494" y2="1560.0138"/>
    <line x1="1985.5684" x2="1988.7187" y1="1560.0138" y2="1577.88"/>
    <line x1="1988.7187" x2="2033.384" y1="1577.88" y2="1570.0043"/>
    <line x1="1857.3771" x2="1861.315" y1="1407.6122" y2="1429.9449"/>
    <line x1="1861.315" x2="1910.4468" y1="1429.9449" y2="1421.2816"/>
    <line x1="1910.4468" x2="1959.5786" y1="1421.2816" y2="1412.6184"/>
    <line x1="1959.5786" x2="1961.9413" y1="1412.6184" y2="1426.018"/>
    <line x1="1961.9413" x2="1965.0916" y1="1426.018" y2="1443.8841"/>
    <line x1="1965.0916" x2="1969.0294" y1="1443.8841" y2="1466.2167"/>
    <line x1="1969.0294" x2="1976.9051" y1="1466.2167" y2="1510.882"/>
    <line x1="1976.9051" x2="1992.6565" y1="1510.882" y2="1600.2126"/>
    <line x1="1992.6565" x2="1996.5944" y1="1600.2126" y2="1622.5453"/>
    <line x1="1996.5944" x2="2045.7262" y1="1622.5453" y2="1613.882"/>
    <line x1="1861.8436" x2="1866.5691" y1="1406.8247" y2="1433.6239"/>
    <line x1="1866.5691" x2="1906.7678" y1="1433.6239" y2="1426.5357"/>
    <line x1="1906.7678" x2="1960.3662" y1="1426.5357" y2="1417.0849"/>
    <line x1="1960.3662" x2="1962.7289" y1="1417.0849" y2="1430.4845"/>
    <line x1="1962.7289" x2="1966.6667" y1="1430.4845" y2="1452.8171"/>
    <line x1="1966.6667" x2="1971.3922" y1="1452.8171" y2="1479.6163"/>
    <line x1="1971.3922" x2="1980.843" y1="1479.6163" y2="1533.2147"/>
    <line x1="1980.843" x2="1999.7447" y1="1533.2147" y2="1640.4114"/>
    <line x1="1999.7447" x2="2004.4701" y1="1640.4114" y2="1667.2106"/>
    <line x1="2004.4701" x2="2058.0684" y1="1667.2106" y2="1657.7597"/>
    <line x1="1866.3102" x2="1871.8232" y1="1406.0371" y2="1437.3028"/>
    <line x1="1871.8232" x2="1903.0889" y1="1437.3028" y2="1431.7898"/>
    <line x1="1903.0889" x2="1961.1538" y1="1431.7898" y2="1421.5514"/>
    <line x1="1961.1538" x2="1963.5165" y1="1421.5514" y2="1434.951"/>
    <line x1="1963.5165" x2="1968.2419" y1="1434.951" y2="1461.7502"/>
    <line x1="1968.2419" x2="1973.7549" y1="1461.7502" y2="1493.0159"/>
    <line x1="1973.7549" x2="1984.7808" y1="1493.0159" y2="1555.5473"/>
    <line x1="1984.7808" x2="2006.8328" y1="1555.5473" y2="1680.6101"/>
    <line x1="2006.8328" x2="2012.3458" y1="1680.6101" y2="1711.8759"/>
    <line x1="2012.3458" x2="2070.4107" y1="1711.8759" y2="1701.6374"/>
    <line x1="1870.7767" x2="1877.0773" y1="1405.2495" y2="1440.9818"/>
    <line x1="1877.0773" x2="1899.4099" y1="1440.9818" y2="1437.0439"/>
    <line x1="1899.4099" x2="1961.9413" y1="1437.0439" y2="1426.018"/>
    <line x1="1961.9413" x2="1964.304" y1="1426.018" y2="1439.4175"/>
    <line x1="1964.304" x2="1969.817" y1="1439.4175" y2="1470.6832"/>
    <line x1="1969.817" x2="1976.1176" y1="1470.6832" y2="1506.4155"/>
    <line x1="1976.1176" x2="1988.7187" y1="1506.4155" y2="1577.88"/>
    <line x1="1988.7187" x2="2013.9209" y1="1577.88" y2="1720.8089"/>
    <line x1="2013.9209" x2="2020.2215" y1="1720.8089" y2="1756.5411"/>
    <line x1="2020.2215" x2="2082.7529" y1="1756.5411" y2="1745.5152"/>
    <line x1="1875.2432" x2="1882.3314" y1="1404.462" y2="1444.6607"/>
    <line x1="1882.3314" x2="1895.7309" y1="1444.6607" y2="1442.298"/>
    <line x1="1895.7309" x2="1962.7289" y1="1442.298" y2="1430.4845"/>
    <line x1="1962.7289" x2="1965.0916" y1="1430.4845" y2="1443.8841"/>
    <line x1="1965.0916" x2="1971.3922" y1="1443.8841" y2="1479.6163"/>
    <line x1="1971.3922" x2="1978.4803" y1="1479.6163" y2="1519.8151"/>
    <line x1="1978.4803" x2="1992.6565" y1="1519.8151" y2="1600.2126"/>
    <line x1="1992.6565" x2="2021.009" y1="1600.2126" y2="1761.0077"/>
    <line x1="2021.009" x2="2028.0972" y1="1761.0077" y2="1801.2064"/>
    <line x1="2028.0972" x2="2095.0951" y1="1801.2064" y2="1789.3929"/>
    <line x1="1879.7098" x2="1887.5855" y1="1403.6744" y2="1448.3397"/>
    <line x1="1887.5855" x2="1892.052" y1="1448.3397" y2="1447.5521"/>
    <line x1="1892.052" x2="1963.5165" y1="1447.5521" y2="1434.951"/>
    <line x1="1963.5165" x2="1965.8792" y1="1434.951" y2="1448.3506"/>
    <line x1="1965.8792" x2="1972.9673" y1="1448.3506" y2="1488.5494"/>
    <line x1="1972.9673" x2="1980.843" y1="1488.5494" y2="1533.2147"/>
    <line x1="1980.843" x2="1996.5944" y1="1533.2147" y2="1622.5453"/>
    <line x1="1996.5944" x2="2028.0972" y1="1622.5453" y2="1801.2064"/>
    <line x1="2028.0972" x2="2035.9729" y1="1801.2064" y2="1845.8717"/>
    <line x1="2035.9729" x2="2107.4373" y1="1845.8717" y2="1833.2706"/>
    <line x1="1884.1763" x2="1892.8396" y1="1402.8868" y2="1452.0187"/>
    <line x1="1892.8396" x2="1888.373" y1="1452.0187" y2="1452.8062"/>
    <line x1="1888.373" x2="1964.304" y1="1452.8062" y2="1439.4175"/>
    <line x1="1964.304" x2="1966.6667" y1="1439.4175" y2="1452.8171"/>
    <line x1="1966.6667" x2="1974.5424" y1="1452.8171" y2="1497.4824"/>
    <line x1="1974.5424" x2="1983.2057" y1="1497.4824" y2="1546.6143"/>
    <line x1="1983.2057" x2="2000.5322" y1="1546.6143" y2="1644.8779"/>
    <line x1="2000.5322" x2="2035.1853" y1="1644.8779" y2="1841.4052"/>
    <line x1="2035.1853" x2="2043.8486" y1="1841.4052" y2="1890.537"/>
    <line x1="2043.8486" x2="2119.7796" y1="1890.537" y2="1877.1484"/>
    <line x1="1888.6428" x2="1898.0937" y1="1402.0993" y2="1455.6976"/>
    <line x1="1898.0937" x2="1884.6941" y1="1455.6976" y2="1458.0603"/>
    <line x1="1884.6941" x2="1965.0916" y1="1458.0603" y2="1443.8841"/>
    <line x1="1965.0916" x2="1967.4543" y1="1443.8841" y2="1457.2837"/>
    <line x1="1967.4543" x2="1976.1176" y1="1457.2837" y2="1506.4155"/>
    <line x1="1976.1176" x2="1985.5684" y1="1506.4155" y2="1560.0138"/>
    <line x1="1985.5684" x2="2004.4701" y1="1560.0138" y2="1667.2106"/>
    <line x1="2004.4701" x2="2042.2734" y1="1667.2106" y2="1881.604"/>
    <line x1="2042.2734" x2="2051.7243" y1="1881.604" y2="1935.2023"/>
    <line x1="2051.7243" x2="2132.1218" y1="1935.2023" y2="1921.0261"/>
    <line x1="1893.1093" x2="1903.3478" y1="1401.3117" y2="1459.3766"/>
    <line x1="1903.3478" x2="1881.0151" y1="1459.3766" y2="1463.3144"/>
    <line x1="1881.0151" x2="1965.8792" y1="1463.3144" y2="1448.3506"/>
    <line x1="1965.8792" x2="1968.2419" y1="1448.3506" y2="1461.7502"/>
    <line x1="1968.2419" x2="1977.6927" y1="1461.7502" y2="1515.3485"/>
    <line x1="1977.6927" x2="1987.9311" y1="1515.3485" y2="1573.4134"/>
    <line x1="1987.9311" x2="2008.4079" y1="1573.4134" y2="1689.5432"/>
    <line x1="2008.4079" x2="2049.3616" y1="1689.5432" y2="1921.8027"/>
    <line x1="2049.3616" x2="2059.6" y1="1921.8027" y2="1979.8676"/>
    <line x1="2059.6" x2="2144.464" y1="1979.8676" y2="1964.9038"/>
    <line x1="1897.5759" x2="1908.6019" y1="1400.5241" y2="1463.0555"/>
    <line x1="1908.6019" x2="1877.3361" y1="1463.0555" y2="1468.5685"/>
    <line x1="1877.3361" x2="1966.6667" y1="1468.5685" y2="1452.8171"/>
    <line x1="1966.6667" x2="1969.0294" y1="1452.8171" y2="1466.2167"/>
    <line x1="1969.0294" x2="1979.2679" y1="1466.2167" y2="1524.2816"/>
    <line x1="1979.2679" x2="1990.2938" y1="1524.2816" y2="1586.813"/>
    <line x1="1990.2938" x2="2012.3458" y1="1586.813" y2="1711.8759"/>
    <line x1="2012.3458" x2="2056.4497" y1="1711.8759" y2="1962.0015"/>
    <line x1="2056.4497" x2="2067.4757" y1="1962.0015" y2="2024.5329"/>
    <line x1="2067.4757" x2="2156.8063" y1="2024.5329" y2="2008.7815"/>
    <line x1="1902.0424" x2="1913.856" y1="1399.7366" y2="1466.7345"/>
    <line x1="1913.856" x2="1873.6572" y1="1466.7345" y2="1473.8226"/>
    <line x1="1873.6572" x2="1967.4543" y1="1473.8226" y2="1457.2837"/>
    <line x1="1967.4543" x2="1969.817" y1="1457.2837" y2="1470.6832"/>
    <line x1="1969.817" x2="1980.843" y1="1470.6832" y2="1533.2147"/>
    <line x1="1980.843" x2="1992.6565" y1="1533.2147" y2="1600.2126"/>
    <line x1="1992.6565" x2="2016.2836" y1="1600.2126" y2="1734.2085"/>
    <line x1="2016.2836" x2="2063.5378" y1="1734.2085" y2="2002.2003"/>
    <line x1="2063.5378" x2="2075.3514" y1="2002.2003" y2="2069.1982"/>
    <line x1="2075.3514" x2="2169.1485" y1="2069.1982" y2="2052.6593"/>
    <line x1="1906.5089" x2="1919.1101" y1="1398.949" y2="1470.4135"/>
    <line x1="1919.1101" x2="1869.9782" y1="1470.4135" y2="1479.0767"/>
    <line x1="1869.9782" x2="1968.2419" y1="1479.0767" y2="1461.7502"/>
    <line x1="1968.2419" x2="1970.6046" y1="1461.7502" y2="1475.1498"/>
    <line x1="1970.6046" x2="1982.4181" y1="1475.1498" y2="1542.1477"/>
    <line x1="1982.4181" x2="1995.0192" y1="1542.1477" y2="1613.6122"/>
    <line x1="1995.0192" x2="2020.2215" y1="1613.6122" y2="1756.5411"/>
    <line x1="2020.2215" x2="2070.6259" y1="1756.5411" y2="2042.399"/>
    <line x1="2070.6259" x2="2083.2271" y1="2042.399" y2="2113.8635"/>
    <line x1="2083.2271" x2="2181.4907" y1="2113.8635" y2="2096.537"/>
    <line x1="1910.9755" x2="1924.3642" y1="1398.1614" y2="1474.0924"/>
    <line x1="1924.3642" x2="1866.2993" y1="1474.0924" y2="1484.3308"/>
    <line x1="1866.2993" x2="1969.0294" y1="1484.3308" y2="1466.2167"/>
    <line x1="1969.0294" x2="1971.3922" y1="1466.2167" y2="1479.6163"/>
    <line x1="1971.3922" x2="1983.9933" y1="1479.6163" y2="1551.0808"/>
    <line x1="1983.9933" x2="1997.382" y1="1551.0808" y2="1627.0118"/>
    <line x1="1997.382" x2="2024.1593" y1="1627.0118" y2="1778.8738"/>
    <line x1="2024.1593" x2="2077.7141" y1="1778.8738" y2="2082.5978"/>
    <line x1="2077.7141" x2="2091.1027" y1="2082.5978" y2="2158.5288"/>
    <line x1="2091.1027" x2="2193.8329" y1="2158.5288" y2="2140.4147"/>
    <line x1="1915.442" x2="1929.6182" y1="1397.3738" y2="1477.7714"/>
    <line x1="1929.6182" x2="1862.6203" y1="1477.7714" y2="1489.5849"/>
    <line x1="1862.6203" x2="1969.817" y1="1489.5849" y2="1470.6832"/>
    <line x1="1969.817" x2="1972.1797" y1="1470.6832" y2="1484.0828"/>
    <line x1="1972.1797" x2="1985.5684" y1="1484.0828" y2="1560.0138"/>
    <line x1="1985.5684" x2="1999.7447" y1="1560.0138" y2="1640.4114"/>
    <line x1="1999.7447" x2="2028.0972" y1="1640.4114" y2="1801.2064"/>
    <line x1="2028.0972" x2="2084.8022" y1="1801.2064" y2="2122.7966"/>
    <line x1="2084.8022" x2="2098.9784" y1="2122.7966" y2="2203.1941"/>
    <line x1="2098.9784" x2="2206.1752" y1="2203.1941" y2="2184.2924"/>
    <line x1="1919.9085" x2="1934.8723" y1="1396.5863" y2="1481.4503"/>
    <line x1="1934.8723" x2="1858.9413" y1="1481.4503" y2="1494.839"/>
    <line x1="1858.9413" x2="1970.6046" y1="1494.839" y2="1475.1498"/>
    <line x1="1970.6046" x2="1972.9673" y1="1475.1498" y2="1488.5494"/>
    <line x1="1972.9673" x2="1987.1435" y1="1488.5494" y2="1568.9469"/>
    <line x1="1987.1435" x2="2002.1074" y1="1568.9469" y2="1653.811"/>
    <line x1="2002.1074" x2="2032.035" y1="1653.811" y2="1823.5391"/>
    <line x1="2032.035" x2="2091.8903" y1="1823.5391" y2="2162.9953"/>
    <line x1="2091.8903" x2="2106.8541" y1="2162.9953" y2="2247.8594"/>
    <line x1="2106.8541" x2="2218.5174" y1="2247.8594" y2="2228.1702"/>
    <line x1="1924.3751" x2="1940.1264" y1="1395.7987" y2="1485.1293"/>
    <line x1="1940.1264" x2="1855.2624" y1="1485.1293" y2="1500.0931"/>
    <line x1="1855.2624" x2="1971.3922" y1="1500.0931" y2="1479.6163"/>
    <line x1="1971.3922" x2="1973.7549" y1="1479.6163" y2="1493.0159"/>
    <line x1="1973.7549" x2="1988.7187" y1="1493.0159" y2="1577.88"/>
    <line x1="1988.7187" x2="2004.4701" y1="1577.88" y2="1667.2106"/>
    <line x1="2004.4701" x2="2035.9729" y1="1667.2106" y2="1845.8717"/>
    <line x1="2035.9729" x2="2098.9784" y1="1845.8717" y2="2203.1941"/>
    <line x1="2098.9784" x2="2114.7298" y1="2203.1941" y2="2292.5247"/>
    <line x1="2114.7298" x2="2230.8596" y1="2292.5247" y2="2272.0479"/>
    <line x1="2228.6467" x2="2225.4965" y1="3069.1722" y2="3051.3061"/>
    <line x1="2225.4965" x2="2219.1959" y1="3051.3061" y2="3015.5738"/>
    <line x1="2219.1959" x2="2216.8332" y1="3015.5738" y2="3002.1742"/>
    <line x1="2216.8332" x2="2212.1078" y1="3002.1742" y2="2975.3751"/>
    <line x1="2212.1078" x2="2209.7451" y1="2975.3751" y2="2961.9755"/>
    <line x1="2209.7451" x2="2205.0197" y1="2961.9755" y2="2935.1763"/>
    <line x1="2205.0197" x2="2201.8694" y1="2935.1763" y2="2917.3102"/>
    <line x1="2201.8694" x2="2215.269" y1="2917.3102" y2="2914.9475"/>
    <line x1="2215.269" x2="2218.4192" y1="2914.9475" y2="2932.8136"/>
    <line x1="2218.4192" x2="2215.269" y1="2932.8136" y2="2914.9475"/>
    <line x1="2233.1133" x2="2230.7506" y1="3068.3846" y2="3054.985"/>
    <line x1="2230.7506" x2="2226.0251" y1="3054.985" y2="3028.1858"/>
    <line x1="2226.0251" x2="2224.45" y1="3028.1858" y2="3019.2528"/>
    <line x1="2224.45" x2="2221.2997" y1="3019.2528" y2="3001.3867"/>
    <line x1="2221.2997" x2="2219.7246" y1="3001.3867" y2="2992.4536"/>
    <line x1="2219.7246" x2="2216.5743" y1="2992.4536" y2="2974.5875"/>
    <line x1="2216.5743" x2="2214.2116" y1="2974.5875" y2="2961.1879"/>
    <line x1="2214.2116" x2="2232.0777" y1="2961.1879" y2="2958.0376"/>
    <line x1="2232.0777" x2="2235.228" y1="2958.0376" y2="2975.9037"/>
    <line x1="2235.228" x2="2232.8653" y1="2975.9037" y2="2962.5042"/>
    <line x1="2237.5798" x2="2236.0047" y1="3067.597" y2="3058.664"/>
    <line x1="2236.0047" x2="2232.8544" y1="3058.664" y2="3040.7979"/>
    <line x1="2232.8544" x2="2232.0668" y1="3040.7979" y2="3036.3313"/>
    <line x1="2232.0668" x2="2230.4917" y1="3036.3313" y2="3027.3983"/>
    <line x1="2230.4917" x2="2229.7041" y1="3027.3983" y2="3022.9317"/>
    <line x1="2229.7041" x2="2228.129" y1="3022.9317" y2="3013.9987"/>
    <line x1="2228.129" x2="2226.5538" y1="3013.9987" y2="3005.0656"/>
    <line x1="2226.5538" x2="2248.8865" y1="3005.0656" y2="3001.1278"/>
    <line x1="2248.8865" x2="2252.0368" y1="3001.1278" y2="3018.9939"/>
    <line x1="2252.0368" x2="2250.4616" y1="3018.9939" y2="3010.0608"/>
    <line x1="2242.0463" x2="2241.2588" y1="3066.8095" y2="3062.3429"/>
    <line x1="2241.2588" x2="2239.6836" y1="3062.3429" y2="3053.4099"/>
    <line x1="2239.6836" x2="2239.6836" y1="3053.4099" y2="3053.4099"/>
    <line x1="2239.6836" x2="2239.6836" y1="3053.4099" y2="3053.4099"/>
    <line x1="2239.6836" x2="2239.6836" y1="3053.4099" y2="3053.4099"/>
    <line x1="2239.6836" x2="2239.6836" y1="3053.4099" y2="3053.4099"/>
    <line x1="2239.6836" x2="2238.8961" y1="3053.4099" y2="3048.9434"/>
    <line x1="2238.8961" x2="2265.6952" y1="3048.9434" y2="3044.2179"/>
    <line x1="2265.6952" x2="2268.8455" y1="3044.2179" y2="3062.0841"/>
    <line x1="2268.8455" x2="2268.0579" y1="3062.0841" y2="3057.6175"/>
    <line x1="2246.5129" x2="2246.5129" y1="3066.0219" y2="3066.0219"/>
    <line x1="2246.5129" x2="2246.5129" y1="3066.0219" y2="3066.0219"/>
    <line x1="2246.5129" x2="2247.3004" y1="3066.0219" y2="3070.4884"/>
    <line x1="2247.3004" x2="2248.8756" y1="3070.4884" y2="3079.4215"/>
    <line x1="2248.8756" x2="2249.6631" y1="3079.4215" y2="3083.888"/>
    <line x1="2249.6631" x2="2251.2383" y1="3083.888" y2="3092.8211"/>
    <line x1="2251.2383" x2="2251.2383" y1="3092.8211" y2="3092.8211"/>
    <line x1="2251.2383" x2="2282.504" y1="3092.8211" y2="3087.3081"/>
    <line x1="2282.504" x2="2285.6543" y1="3087.3081" y2="3105.1742"/>
    <line x1="2285.6543" x2="2285.6543" y1="3105.1742" y2="3105.1742"/>
    <line x1="2250.9794" x2="2251.767" y1="3065.2343" y2="3069.7009"/>
    <line x1="2251.767" x2="2253.3421" y1="3069.7009" y2="3078.6339"/>
    <line x1="2253.3421" x2="2254.9172" y1="3078.6339" y2="3087.567"/>
    <line x1="2254.9172" x2="2258.0675" y1="3087.567" y2="3105.4331"/>
    <line x1="2258.0675" x2="2259.6427" y1="3105.4331" y2="3114.3662"/>
    <line x1="2259.6427" x2="2262.7929" y1="3114.3662" y2="3132.2323"/>
    <line x1="2262.7929" x2="2263.5805" y1="3132.2323" y2="3136.6988"/>
    <line x1="2263.5805" x2="2299.3127" y1="3136.6988" y2="3130.3983"/>
    <line x1="2299.3127" x2="2302.463" y1="3130.3983" y2="3148.2644"/>
    <line x1="2302.463" x2="2303.2506" y1="3148.2644" y2="3152.7309"/>
    <line x1="2255.4459" x2="2257.0211" y1="3064.4468" y2="3073.3798"/>
    <line x1="2257.0211" x2="2260.1713" y1="3073.3798" y2="3091.2459"/>
    <line x1="2260.1713" x2="2262.5341" y1="3091.2459" y2="3104.6455"/>
    <line x1="2262.5341" x2="2267.2595" y1="3104.6455" y2="3131.4447"/>
    <line x1="2267.2595" x2="2269.6222" y1="3131.4447" y2="3144.8443"/>
    <line x1="2269.6222" x2="2274.3476" y1="3144.8443" y2="3171.6435"/>
    <line x1="2274.3476" x2="2275.9227" y1="3171.6435" y2="3180.5765"/>
    <line x1="2275.9227" x2="2316.1215" y1="3180.5765" y2="3173.4884"/>
    <line x1="2316.1215" x2="2319.2718" y1="3173.4884" y2="3191.3545"/>
    <line x1="2319.2718" x2="2320.8469" y1="3191.3545" y2="3200.2876"/>
    <line x1="2259.9125" x2="2262.2752" y1="3063.6592" y2="3077.0588"/>
    <line x1="2262.2752" x2="2267.0006" y1="3077.0588" y2="3103.858"/>
    <line x1="2267.0006" x2="2270.1509" y1="3103.858" y2="3121.7241"/>
    <line x1="2270.1509" x2="2276.4514" y1="3121.7241" y2="3157.4563"/>
    <line x1="2276.4514" x2="2279.6017" y1="3157.4563" y2="3175.3224"/>
    <line x1="2279.6017" x2="2285.9023" y1="3175.3224" y2="3211.0547"/>
    <line x1="2285.9023" x2="2288.265" y1="3211.0547" y2="3224.4543"/>
    <line x1="2288.265" x2="2332.9303" y1="3224.4543" y2="3216.5786"/>
    <line x1="2332.9303" x2="2336.0805" y1="3216.5786" y2="3234.4447"/>
    <line x1="2336.0805" x2="2338.4432" y1="3234.4447" y2="3247.8443"/>
    <line x1="2264.379" x2="2267.5293" y1="3062.8716" y2="3080.7377"/>
    <line x1="2267.5293" x2="2273.8298" y1="3080.7377" y2="3116.47"/>
    <line x1="2273.8298" x2="2277.7677" y1="3116.47" y2="3138.8026"/>
    <line x1="2277.7677" x2="2285.6434" y1="3138.8026" y2="3183.4679"/>
    <line x1="2285.6434" x2="2289.5812" y1="3183.4679" y2="3205.8006"/>
    <line x1="2289.5812" x2="2297.4569" y1="3205.8006" y2="3250.4659"/>
    <line x1="2297.4569" x2="2300.6072" y1="3250.4659" y2="3268.332"/>
    <line x1="2300.6072" x2="2349.739" y1="3268.332" y2="3259.6687"/>
    <line x1="2349.739" x2="2352.8893" y1="3259.6687" y2="3277.5348"/>
    <line x1="2352.8893" x2="2356.0396" y1="3277.5348" y2="3295.401"/>
    <line x1="2268.8455" x2="2272.7834" y1="3062.0841" y2="3084.4167"/>
    <line x1="2272.7834" x2="2280.6591" y1="3084.4167" y2="3129.082"/>
    <line x1="2280.6591" x2="2285.3845" y1="3129.082" y2="3155.8812"/>
    <line x1="2285.3845" x2="2294.8353" y1="3155.8812" y2="3209.4795"/>
    <line x1="2294.8353" x2="2299.5607" y1="3209.4795" y2="3236.2787"/>
    <line x1="2299.5607" x2="2309.0116" y1="3236.2787" y2="3289.8771"/>
    <line x1="2309.0116" x2="2312.9494" y1="3289.8771" y2="3312.2097"/>
    <line x1="2312.9494" x2="2366.5478" y1="3312.2097" y2="3302.7589"/>
    <line x1="2366.5478" x2="2369.6981" y1="3302.7589" y2="3320.625"/>
    <line x1="2369.6981" x2="2373.6359" y1="3320.625" y2="3342.9576"/>
    <line x1="2273.312" x2="2278.0375" y1="3061.2965" y2="3088.0957"/>
    <line x1="2278.0375" x2="2287.4883" y1="3088.0957" y2="3141.694"/>
    <line x1="2287.4883" x2="2293.0013" y1="3141.694" y2="3172.9597"/>
    <line x1="2293.0013" x2="2304.0273" y1="3172.9597" y2="3235.4911"/>
    <line x1="2304.0273" x2="2309.5402" y1="3235.4911" y2="3266.7569"/>
    <line x1="2309.5402" x2="2320.5662" y1="3266.7569" y2="3329.2883"/>
    <line x1="2320.5662" x2="2325.2916" y1="3329.2883" y2="3356.0874"/>
    <line x1="2325.2916" x2="2383.3565" y1="3356.0874" y2="3345.849"/>
    <line x1="2383.3565" x2="2386.5068" y1="3345.849" y2="3363.7152"/>
    <line x1="2386.5068" x2="2391.2322" y1="3363.7152" y2="3390.5143"/>
    <line x1="2277.7786" x2="2283.2916" y1="3060.5089" y2="3091.7746"/>
    <line x1="2283.2916" x2="2294.3175" y1="3091.7746" y2="3154.306"/>
    <line x1="2294.3175" x2="2300.6181" y1="3154.306" y2="3190.0383"/>
    <line x1="2300.6181" x2="2313.2192" y1="3190.0383" y2="3261.5028"/>
    <line x1="2313.2192" x2="2319.5198" y1="3261.5028" y2="3297.235"/>
    <line x1="2319.5198" x2="2332.1209" y1="3297.235" y2="3368.6995"/>
    <line x1="2332.1209" x2="2337.6339" y1="3368.6995" y2="3399.9652"/>
    <line x1="2337.6339" x2="2400.1653" y1="3399.9652" y2="3388.9392"/>
    <line x1="2400.1653" x2="2403.3156" y1="3388.9392" y2="3406.8053"/>
    <line x1="2403.3156" x2="2408.8286" y1="3406.8053" y2="3438.071"/>
    <line x1="2282.2451" x2="2288.5457" y1="3059.7213" y2="3095.4536"/>
    <line x1="2288.5457" x2="2301.1468" y1="3095.4536" y2="3166.9181"/>
    <line x1="2301.1468" x2="2308.2349" y1="3166.9181" y2="3207.1168"/>
    <line x1="2308.2349" x2="2322.4112" y1="3207.1168" y2="3287.5144"/>
    <line x1="2322.4112" x2="2329.4993" y1="3287.5144" y2="3327.7131"/>
    <line x1="2329.4993" x2="2343.6755" y1="3327.7131" y2="3408.1107"/>
    <line x1="2343.6755" x2="2349.9761" y1="3408.1107" y2="3443.8429"/>
    <line x1="2349.9761" x2="2416.974" y1="3443.8429" y2="3432.0294"/>
    <line x1="2416.974" x2="2420.1243" y1="3432.0294" y2="3449.8955"/>
    <line x1="2420.1243" x2="2426.4249" y1="3449.8955" y2="3485.6277"/>
    <line x1="2286.7116" x2="2293.7998" y1="3058.9338" y2="3099.1325"/>
    <line x1="2293.7998" x2="2307.976" y1="3099.1325" y2="3179.5301"/>
    <line x1="2307.976" x2="2315.8517" y1="3179.5301" y2="3224.1954"/>
    <line x1="2315.8517" x2="2331.6031" y1="3224.1954" y2="3313.526"/>
    <line x1="2331.6031" x2="2339.4788" y1="3313.526" y2="3358.1913"/>
    <line x1="2339.4788" x2="2355.2302" y1="3358.1913" y2="3447.5219"/>
    <line x1="2355.2302" x2="2362.3183" y1="3447.5219" y2="3487.7206"/>
    <line x1="2362.3183" x2="2433.7828" y1="3487.7206" y2="3475.1195"/>
    <line x1="2433.7828" x2="2436.9331" y1="3475.1195" y2="3492.9856"/>
    <line x1="2436.9331" x2="2444.0212" y1="3492.9856" y2="3533.1844"/>
    <line x1="2291.1782" x2="2299.0539" y1="3058.1462" y2="3102.8115"/>
    <line x1="2299.0539" x2="2314.8053" y1="3102.8115" y2="3192.1421"/>
    <line x1="2314.8053" x2="2323.4685" y1="3192.1421" y2="3241.2739"/>
    <line x1="2323.4685" x2="2340.7951" y1="3241.2739" y2="3339.5376"/>
    <line x1="2340.7951" x2="2349.4583" y1="3339.5376" y2="3388.6694"/>
    <line x1="2349.4583" x2="2366.7849" y1="3388.6694" y2="3486.9331"/>
    <line x1="2366.7849" x2="2374.6605" y1="3486.9331" y2="3531.5984"/>
    <line x1="2374.6605" x2="2450.5916" y1="3531.5984" y2="3518.2097"/>
    <line x1="2450.5916" x2="2453.7418" y1="3518.2097" y2="3536.0758"/>
    <line x1="2453.7418" x2="2461.6175" y1="3536.0758" y2="3580.7411"/>
    <line x1="2295.6447" x2="2304.308" y1="3057.3586" y2="3106.4905"/>
    <line x1="2304.308" x2="2321.6345" y1="3106.4905" y2="3204.7541"/>
    <line x1="2321.6345" x2="2331.0853" y1="3204.7541" y2="3258.3525"/>
    <line x1="2331.0853" x2="2349.987" y1="3258.3525" y2="3365.5492"/>
    <line x1="2349.987" x2="2359.4378" y1="3365.5492" y2="3419.1475"/>
    <line x1="2359.4378" x2="2378.3395" y1="3419.1475" y2="3526.3443"/>
    <line x1="2378.3395" x2="2387.0028" y1="3526.3443" y2="3575.4761"/>
    <line x1="2387.0028" x2="2467.4003" y1="3575.4761" y2="3561.2998"/>
    <line x1="2467.4003" x2="2470.5506" y1="3561.2998" y2="3579.1659"/>
    <line x1="2470.5506" x2="2479.2139" y1="3579.1659" y2="3628.2978"/>
    <line x1="2300.1112" x2="2309.5621" y1="3056.5711" y2="3110.1694"/>
    <line x1="2309.5621" x2="2328.4637" y1="3110.1694" y2="3217.3661"/>
    <line x1="2328.4637" x2="2338.7021" y1="3217.3661" y2="3275.431"/>
    <line x1="2338.7021" x2="2359.1789" y1="3275.431" y2="3391.5608"/>
    <line x1="2359.1789" x2="2369.4174" y1="3391.5608" y2="3449.6257"/>
    <line x1="2369.4174" x2="2389.8942" y1="3449.6257" y2="3565.7554"/>
    <line x1="2389.8942" x2="2399.345" y1="3565.7554" y2="3619.3538"/>
    <line x1="2399.345" x2="2484.2091" y1="3619.3538" y2="3604.39"/>
    <line x1="2484.2091" x2="2487.3593" y1="3604.39" y2="3622.2561"/>
    <line x1="2487.3593" x2="2496.8102" y1="3622.2561" y2="3675.8545"/>
    <line x1="2304.5778" x2="2314.8162" y1="3055.7835" y2="3113.8484"/>
    <line x1="2314.8162" x2="2335.293" y1="3113.8484" y2="3229.9782"/>
    <line x1="2335.293" x2="2346.3189" y1="3229.9782" y2="3292.5096"/>
    <line x1="2346.3189" x2="2368.3709" y1="3292.5096" y2="3417.5724"/>
    <line x1="2368.3709" x2="2379.3969" y1="3417.5724" y2="3480.1038"/>
    <line x1="2379.3969" x2="2401.4488" y1="3480.1038" y2="3605.1666"/>
    <line x1="2401.4488" x2="2411.6872" y1="3605.1666" y2="3663.2315"/>
    <line x1="2411.6872" x2="2501.0178" y1="3663.2315" y2="3647.4801"/>
    <line x1="2501.0178" x2="2504.1681" y1="3647.4801" y2="3665.3463"/>
    <line x1="2504.1681" x2="2514.4065" y1="3665.3463" y2="3723.4111"/>
    <line x1="2309.0443" x2="2320.0703" y1="3054.9959" y2="3117.5273"/>
    <line x1="2320.0703" x2="2342.1222" y1="3117.5273" y2="3242.5902"/>
    <line x1="2342.1222" x2="2353.9358" y1="3242.5902" y2="3309.5881"/>
    <line x1="2353.9358" x2="2377.5628" y1="3309.5881" y2="3443.584"/>
    <line x1="2377.5628" x2="2389.3764" y1="3443.584" y2="3510.582"/>
    <line x1="2389.3764" x2="2413.0035" y1="3510.582" y2="3644.5778"/>
    <line x1="2413.0035" x2="2424.0295" y1="3644.5778" y2="3707.1093"/>
    <line x1="2424.0295" x2="2517.8266" y1="3707.1093" y2="3690.5703"/>
    <line x1="2517.8266" x2="2520.9769" y1="3690.5703" y2="3708.4364"/>
    <line x1="2520.9769" x2="2532.0028" y1="3708.4364" y2="3770.9678"/>
    <line x1="2313.5108" x2="2325.3244" y1="3054.2084" y2="3121.2063"/>
    <line x1="2325.3244" x2="2348.9514" y1="3121.2063" y2="3255.2022"/>
    <line x1="2348.9514" x2="2361.5526" y1="3255.2022" y2="3326.6667"/>
    <line x1="2361.5526" x2="2386.7548" y1="3326.6667" y2="3469.5956"/>
    <line x1="2386.7548" x2="2399.3559" y1="3469.5956" y2="3541.0601"/>
    <line x1="2399.3559" x2="2424.5581" y1="3541.0601" y2="3683.989"/>
    <line x1="2424.5581" x2="2436.3717" y1="3683.989" y2="3750.987"/>
    <line x1="2436.3717" x2="2534.6353" y1="3750.987" y2="3733.6605"/>
    <line x1="2534.6353" x2="2537.7856" y1="3733.6605" y2="3751.5266"/>
    <line x1="2537.7856" x2="2549.5992" y1="3751.5266" y2="3818.5245"/>
    <line x1="2317.9773" x2="2330.5785" y1="3053.4208" y2="3124.8853"/>
    <line x1="2330.5785" x2="2355.7807" y1="3124.8853" y2="3267.8142"/>
    <line x1="2355.7807" x2="2369.1694" y1="3267.8142" y2="3343.7452"/>
    <line x1="2369.1694" x2="2395.9467" y1="3343.7452" y2="3495.6072"/>
    <line x1="2395.9467" x2="2409.3354" y1="3495.6072" y2="3571.5382"/>
    <line x1="2409.3354" x2="2436.1128" y1="3571.5382" y2="3723.4002"/>
    <line x1="2436.1128" x2="2448.7139" y1="3723.4002" y2="3794.8647"/>
    <line x1="2448.7139" x2="2551.4441" y1="3794.8647" y2="3776.7506"/>
    <line x1="2551.4441" x2="2554.5944" y1="3776.7506" y2="3794.6167"/>
    <line x1="2554.5944" x2="2567.1955" y1="3794.6167" y2="3866.0812"/>
    <line x1="2322.4439" x2="2335.8326" y1="3052.6332" y2="3128.5642"/>
    <line x1="2335.8326" x2="2362.6099" y1="3128.5642" y2="3280.4262"/>
    <line x1="2362.6099" x2="2376.7862" y1="3280.4262" y2="3360.8238"/>
    <line x1="2376.7862" x2="2405.1387" y1="3360.8238" y2="3521.6188"/>
    <line x1="2405.1387" x2="2419.3149" y1="3521.6188" y2="3602.0164"/>
    <line x1="2419.3149" x2="2447.6674" y1="3602.0164" y2="3762.8114"/>
    <line x1="2447.6674" x2="2461.0561" y1="3762.8114" y2="3838.7424"/>
    <line x1="2461.0561" x2="2568.2528" y1="3838.7424" y2="3819.8408"/>
    <line x1="2568.2528" x2="2571.4031" y1="3819.8408" y2="3837.7069"/>
    <line x1="2571.4031" x2="2584.7918" y1="3837.7069" y2="3913.6379"/>
    <line x1="2326.9104" x2="2341.0867" y1="3051.8457" y2="3132.2432"/>
    <line x1="2341.0867" x2="2369.4392" y1="3132.2432" y2="3293.0383"/>
    <line x1="2369.4392" x2="2384.403" y1="3293.0383" y2="3377.9023"/>
    <line x1="2384.403" x2="2414.3306" y1="3377.9023" y2="3547.6304"/>
    <line x1="2414.3306" x2="2429.2945" y1="3547.6304" y2="3632.4945"/>
    <line x1="2429.2945" x2="2459.2221" y1="3632.4945" y2="3802.2226"/>
    <line x1="2459.2221" x2="2473.3984" y1="3802.2226" y2="3882.6202"/>
    <line x1="2473.3984" x2="2585.0616" y1="3882.6202" y2="3862.9309"/>
    <line x1="2585.0616" x2="2588.2119" y1="3862.9309" y2="3880.797"/>
    <line x1="2588.2119" x2="2602.3881" y1="3880.797" y2="3961.1946"/>
    <line x1="2331.3769" x2="2346.3408" y1="3051.0581" y2="3135.9221"/>
    <line x1="2346.3408" x2="2376.2684" y1="3135.9221" y2="3305.6503"/>
    <line x1="2376.2684" x2="2392.0198" y1="3305.6503" y2="3394.9809"/>
    <line x1="2392.0198" x2="2423.5226" y1="3394.9809" y2="3573.6421"/>
    <line x1="2423.5226" x2="2439.274" y1="3573.6421" y2="3662.9726"/>
    <line x1="2439.274" x2="2470.7768" y1="3662.9726" y2="3841.6338"/>
    <line x1="2470.7768" x2="2485.7406" y1="3841.6338" y2="3926.4979"/>
    <line x1="2485.7406" x2="2601.8704" y1="3926.4979" y2="3906.0211"/>
    <line x1="2601.8704" x2="2605.0206" y1="3906.0211" y2="3923.8872"/>
    <line x1="2605.0206" x2="2619.9845" y1="3923.8872" y2="4008.7513"/>
  </g>
</svg>
